<?xml version="1.0" encoding="UTF-8" standalone="no"?>
<!DOCTYPE svg PUBLIC "-//W3C//DTD SVG 1.0//EN" "http://www.w3.org/TR/2001/REC-SVG-20010904/DTD/svg10.dtd">
<svg xmlns="http://www.w3.org/2000/svg" version="1.0" viewBox="0.00 0.00 1254.00 1254.00">
<g stroke-width="2.00" fill="none" stroke-linecap="butt">
<path stroke="#abbeb3" vector-effect="non-scaling-stroke" d="
  M 664.69 622.95
  Q 682.24 603.21 703.85 585.09
  Q 708.92 580.85 727.02 565.53
  Q 751.67 544.68 771.07 523.35
  Q 786.50 506.39 800.71 482.90
  Q 813.39 461.93 821.68 437.37
  Q 829.13 415.25 832.67 395.77
  C 836.79 373.06 837.89 348.14 837.36 324.22
  A 0.63 0.63 0.0 0 1 838.00 323.58
  C 843.67 323.74 849.69 323.76 854.88 321.91
  C 871.19 316.07 877.73 299.01 876.07 282.51
  C 874.65 268.40 866.66 255.78 852.84 252.08
  Q 848.75 250.99 832.58 250.98
  Q 581.10 250.88 426.00 250.98
  Q 413.93 250.99 410.98 251.19
  C 384.35 253.01 375.34 280.23 382.79 302.31
  Q 386.16 312.32 394.54 318.31
  C 402.09 323.71 409.01 323.81 417.99 323.56
  A 0.69 0.69 0.0 0 1 418.70 324.28
  Q 418.08 339.06 418.49 353.01
  C 419.20 377.08 423.08 400.25 429.82 423.14
  Q 433.32 435.03 434.29 437.72
  C 448.04 475.95 470.35 509.66 499.70 538.94
  Q 512.76 551.98 521.12 559.14
  Q 550.07 583.95 557.34 590.37
  Q 568.98 600.63 574.73 606.47
  Q 584.64 616.54 591.23 623.26
  A 0.60 0.60 0.0 0 1 591.24 624.09
  C 569.89 647.16 555.73 659.80 526.06 687.89
  C 500.39 712.20 475.61 738.26 455.98 768.11
  C 450.36 776.68 444.92 786.39 440.76 794.73
  Q 422.33 831.69 418.04 873.25
  C 415.88 894.15 416.30 915.43 417.64 936.27
  A 1.08 1.08 0.0 0 1 416.56 937.42
  C 412.81 937.41 408.10 937.23 404.43 938.21
  Q 389.22 942.30 382.92 956.91
  Q 375.79 973.44 383.20 991.09
  Q 391.44 1010.71 413.25 1010.71
  Q 568.40 1010.70 834.30 1010.75
  Q 848.72 1010.75 853.52 1009.19
  C 871.80 1003.24 878.18 982.39 874.87 964.65
  C 872.16 950.15 859.91 937.17 844.63 937.45
  Q 844.11 937.46 837.89 937.46
  A 0.75 0.74 1.8 0 1 837.14 936.67
  Q 838.20 920.32 838.04 903.01
  C 837.76 871.73 832.88 841.44 822.31 812.51
  C 810.89 781.27 791.56 751.35 769.37 726.37
  Q 758.23 713.83 753.47 709.03
  Q 741.66 697.11 720.34 677.16
  Q 703.33 661.23 694.59 653.33
  C 684.86 644.52 673.12 632.50 664.71 623.80
  A 0.62 0.62 0.0 0 1 664.69 622.95"
/>
<path stroke="#abbeb3" vector-effect="non-scaling-stroke" d="
  M 855.52 283.82
  A 11.90 11.90 0.0 0 0 843.62 271.92
  L 413.14 271.92
  A 11.90 11.90 0.0 0 0 401.24 283.82
  L 401.24 291.04
  A 11.90 11.90 0.0 0 0 413.14 302.94
  L 843.62 302.94
  A 11.90 11.90 0.0 0 0 855.52 291.04
  L 855.52 283.82"
/>
<path stroke="#abbeb3" vector-effect="non-scaling-stroke" d="
  M 626.20 831.55
  Q 628.93 824.92 634.37 816.59
  Q 636.59 813.20 639.72 810.28
  Q 641.39 808.72 645.57 804.43
  Q 648.78 801.12 655.92 797.41
  Q 668.97 790.62 681.49 789.68
  Q 686.89 789.27 694.75 789.31
  Q 697.74 789.32 699.06 790.39
  Q 701.25 792.18 701.41 794.11
  Q 703.02 814.12 695.11 832.08
  Q 691.82 839.56 687.79 844.67
  C 675.14 860.75 656.66 868.54 635.96 867.91
  A 0.66 0.66 0.0 0 0 635.28 868.57
  L 635.28 884.80
  A 0.67 0.67 0.0 0 0 635.92 885.47
  Q 656.48 886.22 676.80 891.97
  Q 693.79 896.77 705.15 901.89
  Q 725.45 911.05 745.57 920.15
  Q 769.79 931.10 795.35 936.16
  Q 802.12 937.50 815.88 937.11
  A 0.62 0.61 1.0 0 0 816.48 936.54
  Q 818.70 907.94 816.62 880.63
  Q 815.75 869.18 813.14 856.32
  Q 801.20 797.41 763.14 750.85
  Q 742.93 726.12 718.59 703.40
  Q 694.05 680.51 665.67 653.34
  Q 660.55 648.44 656.85 644.35
  C 653.17 640.27 647.67 635.23 643.29 629.63
  A 5.80 5.59 -75.3 0 1 642.44 628.11
  Q 639.81 621.11 645.10 615.29
  Q 654.77 604.65 661.47 596.99
  Q 665.76 592.09 685.66 573.91
  Q 690.91 569.12 713.56 550.32
  Q 731.13 535.73 746.17 520.42
  C 769.01 497.17 787.57 470.04 799.26 440.01
  Q 811.71 408.03 815.73 370.51
  C 817.36 355.38 817.00 337.51 816.89 324.36
  A 0.82 0.82 0.0 0 0 816.07 323.54
  L 439.99 323.54
  A 0.42 0.41 -88.5 0 0 439.58 323.94
  Q 438.84 338.04 439.15 351.00
  Q 439.67 372.78 444.66 397.62
  C 455.44 451.34 485.81 499.72 526.53 536.54
  Q 536.73 545.75 542.08 550.32
  Q 564.38 569.34 569.96 574.33
  C 576.72 580.38 582.17 586.05 588.20 591.29
  C 594.72 596.96 599.57 603.13 605.17 608.62
  A 1.10 1.09 44.3 0 0 606.72 608.61
  Q 612.74 602.50 615.14 595.41
  Q 616.45 591.52 616.28 580.96
  Q 615.97 562.83 616.35 544.50
  Q 616.39 542.41 616.05 535.27
  A 1.62 1.60 -73.9 0 0 615.38 534.04
  Q 604.80 526.53 597.08 515.11
  C 576.79 485.09 576.69 450.47 592.78 418.26
  Q 603.01 397.76 620.74 381.50
  C 624.14 378.38 626.78 377.80 630.04 381.21
  Q 639.73 391.30 646.95 401.56
  Q 660.39 420.67 665.50 443.26
  Q 670.23 464.19 665.49 484.96
  C 663.98 491.61 661.23 497.32 658.38 503.34
  A 3.57 3.57 0.0 0 1 655.97 505.28
  Q 647.89 507.17 638.62 506.70
  A 0.57 0.57 0.0 0 1 638.12 505.90
  C 640.13 501.23 643.64 495.87 645.71 490.33
  Q 653.13 470.51 648.65 449.37
  C 646.35 438.52 642.49 427.30 636.47 417.93
  C 631.90 410.81 629.60 407.03 625.61 402.71
  A 0.71 0.71 0.0 0 0 624.60 402.68
  Q 619.71 407.44 616.61 412.34
  C 612.81 418.34 608.74 424.42 606.17 431.31
  Q 602.81 440.31 602.75 440.51
  C 593.93 469.81 600.89 499.09 624.24 519.48
  A 1.73 1.73 0.0 0 0 625.73 519.86
  Q 627.98 519.38 630.09 519.90
  Q 645.07 523.60 659.21 520.28
  Q 669.50 517.86 680.15 511.57
  C 686.73 507.68 692.55 502.19 697.78 497.03
  Q 700.87 493.98 704.61 488.45
  C 706.86 485.12 708.33 483.67 712.18 482.94
  C 717.66 481.89 722.87 486.08 722.19 491.75
  Q 721.89 494.32 718.56 499.04
  C 699.82 525.57 669.22 543.52 635.91 538.62
  A 0.48 0.48 0.0 0 0 635.36 539.10
  Q 635.48 564.77 635.26 587.50
  C 635.21 593.87 634.44 599.14 631.33 605.07
  Q 627.92 611.58 626.95 612.93
  Q 623.46 617.77 617.41 624.15
  C 615.56 626.10 613.86 628.64 612.45 630.20
  Q 592.37 652.56 578.39 665.89
  C 572.50 671.51 569.33 675.23 564.40 679.56
  C 559.75 683.66 554.93 688.66 551.01 692.28
  C 531.81 710.01 513.77 727.88 496.53 747.79
  Q 475.55 772.04 461.05 800.27
  C 447.14 827.34 439.31 856.91 437.73 886.52
  Q 436.52 909.31 438.15 936.44
  A 0.70 0.69 0.5 0 0 438.80 937.10
  C 457.43 938.22 475.26 934.50 492.17 927.67
  C 501.72 923.82 510.76 920.20 521.30 915.30
  Q 537.91 907.59 547.03 903.46
  C 555.61 899.57 565.72 896.01 573.13 893.65
  Q 594.41 886.88 616.94 885.46
  A 0.70 0.69 88.3 0 0 617.59 884.76
  L 617.59 867.57
  A 1.25 1.25 0.0 0 0 616.31 866.32
  C 610.77 866.44 606.24 866.63 601.33 865.60
  C 584.94 862.18 568.61 851.95 561.34 836.69
  C 558.66 831.06 556.56 827.48 555.41 822.85
  Q 553.47 814.99 553.14 806.69
  C 553.01 803.31 554.05 799.29 558.05 798.75
  Q 570.70 797.03 582.92 798.88
  Q 589.84 799.93 600.53 804.96
  C 606.66 807.84 614.39 814.96 617.97 819.28
  Q 622.70 824.96 625.54 831.55
  A 0.36 0.36 0.0 0 0 626.20 831.55"
/>
<path stroke="#abbeb3" vector-effect="non-scaling-stroke" d="
  M 684.60 806.04
  Q 673.52 806.46 664.37 811.61
  Q 657.63 815.40 654.53 818.05
  Q 650.22 821.74 644.80 829.99
  Q 642.44 833.59 640.21 840.18
  Q 637.33 848.74 636.76 850.93
  A 0.74 0.74 0.0 0 0 637.50 851.85
  Q 657.75 851.36 671.77 837.99
  Q 674.82 835.08 677.05 831.06
  C 679.99 825.76 682.76 820.69 683.80 815.05
  Q 684.61 810.64 684.99 806.45
  A 0.38 0.37 2.0 0 0 684.60 806.04"
/>
<path stroke="#abbeb3" vector-effect="non-scaling-stroke" d="
  M 570.53 814.75
  Q 570.36 814.96 570.39 815.11
  Q 572.52 825.72 579.47 834.06
  Q 583.62 839.03 586.08 840.99
  Q 588.55 842.95 594.32 845.87
  Q 604.01 850.78 614.82 850.47
  Q 614.98 850.47 615.15 850.25
  Q 615.31 850.04 615.28 849.89
  Q 613.15 839.28 606.20 830.95
  Q 602.05 825.98 599.59 824.02
  Q 597.12 822.05 591.35 819.13
  Q 581.66 814.23 570.85 814.53
  Q 570.69 814.54 570.53 814.75"
/>
<path stroke="#abbeb3" vector-effect="non-scaling-stroke" d="
  M 627.66 938.11
  Q 715.24 938.05 731.13 938.31
  Q 736.13 938.38 741.20 938.43
  A 0.27 0.27 0.0 0 0 741.30 937.91
  Q 725.00 931.23 705.35 922.10
  C 695.92 917.72 683.83 913.33 675.73 910.87
  C 660.38 906.20 643.89 903.29 627.64 903.30
  C 611.40 903.31 594.91 906.24 579.57 910.93
  C 571.47 913.40 559.38 917.81 549.96 922.20
  Q 530.32 931.35 514.03 938.05
  A 0.27 0.27 0.0 0 0 514.13 938.57
  Q 519.20 938.52 524.20 938.44
  Q 540.09 938.16 627.66 938.11"
/>
<path stroke="#abbeb3" vector-effect="non-scaling-stroke" d="
  M 854.70 970.43
  A 11.61 11.61 0.0 0 0 843.09 958.82
  L 412.43 958.82
  A 11.61 11.61 0.0 0 0 400.82 970.43
  L 400.82 978.15
  A 11.61 11.61 0.0 0 0 412.43 989.76
  L 843.09 989.76
  A 11.61 11.61 0.0 0 0 854.70 978.15
  L 854.70 970.43"
/>
<path stroke="#abbeb3" vector-effect="non-scaling-stroke" d="
  M 627.3252 649.5368
  A 9.53 9.19 -86.6 0 0 617.5862 658.5050
  A 9.53 9.19 -86.6 0 0 626.1948 668.5632
  A 9.53 9.19 -86.6 0 0 635.9338 659.5950
  A 9.53 9.19 -86.6 0 0 627.3252 649.5368"
/>
<path stroke="#abbeb3" vector-effect="non-scaling-stroke" d="
  M 635.88 692.44
  A 9.18 9.18 0.0 0 0 626.70 683.26
  A 9.18 9.18 0.0 0 0 617.52 692.44
  A 9.18 9.18 0.0 0 0 626.70 701.62
  A 9.18 9.18 0.0 0 0 635.88 692.44"
/>
<path stroke="#abbeb3" vector-effect="non-scaling-stroke" d="
  M 635.70 715.82
  A 9.03 9.03 0.0 0 0 626.67 706.79
  A 9.03 9.03 0.0 0 0 617.64 715.82
  A 9.03 9.03 0.0 0 0 626.67 724.85
  A 9.03 9.03 0.0 0 0 635.70 715.82"
/>
<path stroke="#abbeb3" vector-effect="non-scaling-stroke" d="
  M 626.42 807.10
  A 2.08 2.08 0.0 0 0 628.30 806.68
  Q 630.88 804.51 636.30 798.24
  C 642.43 791.14 644.97 785.23 644.88 775.54
  Q 644.78 765.95 641.28 758.96
  Q 637.71 751.81 632.89 744.87
  Q 630.90 742.00 628.65 740.01
  A 1.60 1.54 -20.4 0 0 627.75 739.62
  Q 623.98 739.27 621.77 742.54
  Q 617.59 748.73 612.57 757.31
  C 608.69 763.95 606.17 775.26 608.44 783.34
  Q 610.88 792.03 616.45 798.05
  Q 621.38 803.39 624.90 806.21
  Q 625.80 806.94 626.42 807.10"
/>
<path stroke="#abbeb3" vector-effect="non-scaling-stroke" d="
  M 626.23 787.20
  Q 626.78 787.20 627.82 785.41
  C 632.37 777.66 630.33 772.05 627.20 764.61
  Q 626.88 763.83 626.47 763.83
  Q 626.07 763.82 625.73 764.59
  C 622.45 771.97 620.29 777.53 624.67 785.38
  Q 625.68 787.19 626.23 787.20"
/>
</g>
<path fill="#577c67" d="
  M 247.02 960.15
  L 247.02 959.81
  A 1.03 0.99 -66.3 0 0 246.78 959.15
  Q 227.63 936.42 212.34 914.68
  Q 150.61 826.88 129.04 720.95
  Q 128.21 716.86 125.44 699.99
  Q 123.79 689.88 122.74 678.91
  Q 120.59 656.59 120.10 649.93
  Q 119.93 647.70 119.40 628.86
  C 119.26 624.04 118.70 614.98 118.98 608.22
  Q 119.38 598.80 119.41 597.78
  Q 120.97 548.32 129.72 506.71
  Q 154.74 387.61 228.07 291.31
  Q 238.65 277.41 254.42 260.07
  Q 268.88 244.16 283.10 230.93
  C 340.37 177.67 409.98 136.75 485.07 114.35
  Q 534.06 99.74 586.00 94.43
  Q 587.39 94.28 587.83 94.16
  A 2.88 0.42 -19.1 0 1 589.25 93.89
  Q 595.04 93.75 598.34 93.38
  C 606.15 92.50 612.67 92.64 621.07 92.11
  C 631.42 91.45 642.30 92.27 653.33 92.64
  C 663.38 92.98 672.92 93.91 682.98 94.84
  Q 685.63 95.09 687.28 95.27
  Q 698.56 96.51 713.67 99.11
  Q 725.36 101.12 739.82 104.28
  Q 803.33 118.14 861.22 148.56
  Q 876.37 156.52 894.36 167.66
  Q 939.62 195.67 979.63 234.00
  Q 980.53 234.87 981.22 235.08
  Q 981.90 235.29 982.07 236.03
  Q 982.13 236.30 982.86 237.06
  Q 987.17 241.61 991.24 244.99
  Q 993.83 247.14 995.40 249.82
  A 4.32 4.07 -83.1 0 0 995.88 250.47
  Q 1001.44 256.47 1005.19 260.58
  Q 1005.45 260.87 1007.29 262.95
  Q 1056.65 318.54 1088.36 386.15
  Q 1119.01 451.50 1130.78 521.91
  Q 1134.33 543.14 1136.87 572.89
  Q 1137.16 576.33 1137.69 592.77
  Q 1137.71 593.33 1137.93 594.24
  A 5.37 5.21 38.9 0 1 1138.06 595.31
  Q 1138.33 609.94 1138.01 627.00
  Q 1138.01 627.21 1137.96 628.53
  Q 1134.72 717.25 1105.50 797.01
  Q 1085.90 850.48 1054.62 900.39
  Q 1008.43 974.07 940.74 1028.25
  Q 930.77 1036.23 917.26 1046.01
  Q 903.92 1055.67 892.88 1062.49
  Q 844.61 1092.28 797.14 1109.11
  Q 709.16 1140.31 615.25 1138.06
  Q 613.06 1138.00 612.67 1137.99
  Q 545.36 1135.24 483.12 1115.95
  Q 476.34 1113.85 470.58 1111.75
  C 465.01 1109.72 459.08 1107.84 453.96 1105.84
  C 375.29 1075.21 304.68 1024.99 248.94 961.56
  Q 248.52 961.08 247.65 960.92
  A 0.79 0.79 0.0 0 1 247.02 960.15
  Z
  M 664.69 622.95
  Q 682.24 603.21 703.85 585.09
  Q 708.92 580.85 727.02 565.53
  Q 751.67 544.68 771.07 523.35
  Q 786.50 506.39 800.71 482.90
  Q 813.39 461.93 821.68 437.37
  Q 829.13 415.25 832.67 395.77
  C 836.79 373.06 837.89 348.14 837.36 324.22
  A 0.63 0.63 0.0 0 1 838.00 323.58
  C 843.67 323.74 849.69 323.76 854.88 321.91
  C 871.19 316.07 877.73 299.01 876.07 282.51
  C 874.65 268.40 866.66 255.78 852.84 252.08
  Q 848.75 250.99 832.58 250.98
  Q 581.10 250.88 426.00 250.98
  Q 413.93 250.99 410.98 251.19
  C 384.35 253.01 375.34 280.23 382.79 302.31
  Q 386.16 312.32 394.54 318.31
  C 402.09 323.71 409.01 323.81 417.99 323.56
  A 0.69 0.69 0.0 0 1 418.70 324.28
  Q 418.08 339.06 418.49 353.01
  C 419.20 377.08 423.08 400.25 429.82 423.14
  Q 433.32 435.03 434.29 437.72
  C 448.04 475.95 470.35 509.66 499.70 538.94
  Q 512.76 551.98 521.12 559.14
  Q 550.07 583.95 557.34 590.37
  Q 568.98 600.63 574.73 606.47
  Q 584.64 616.54 591.23 623.26
  A 0.60 0.60 0.0 0 1 591.24 624.09
  C 569.89 647.16 555.73 659.80 526.06 687.89
  C 500.39 712.20 475.61 738.26 455.98 768.11
  C 450.36 776.68 444.92 786.39 440.76 794.73
  Q 422.33 831.69 418.04 873.25
  C 415.88 894.15 416.30 915.43 417.64 936.27
  A 1.08 1.08 0.0 0 1 416.56 937.42
  C 412.81 937.41 408.10 937.23 404.43 938.21
  Q 389.22 942.30 382.92 956.91
  Q 375.79 973.44 383.20 991.09
  Q 391.44 1010.71 413.25 1010.71
  Q 568.40 1010.70 834.30 1010.75
  Q 848.72 1010.75 853.52 1009.19
  C 871.80 1003.24 878.18 982.39 874.87 964.65
  C 872.16 950.15 859.91 937.17 844.63 937.45
  Q 844.11 937.46 837.89 937.46
  A 0.75 0.74 1.8 0 1 837.14 936.67
  Q 838.20 920.32 838.04 903.01
  C 837.76 871.73 832.88 841.44 822.31 812.51
  C 810.89 781.27 791.56 751.35 769.37 726.37
  Q 758.23 713.83 753.47 709.03
  Q 741.66 697.11 720.34 677.16
  Q 703.33 661.23 694.59 653.33
  C 684.86 644.52 673.12 632.50 664.71 623.80
  A 0.62 0.62 0.0 0 1 664.69 622.95
  Z"
/>
<path fill="#ffffff" d="
  M 664.69 622.95
  A 0.62 0.62 0.0 0 0 664.71 623.80
  C 673.12 632.50 684.86 644.52 694.59 653.33
  Q 703.33 661.23 720.34 677.16
  Q 741.66 697.11 753.47 709.03
  Q 758.23 713.83 769.37 726.37
  C 791.56 751.35 810.89 781.27 822.31 812.51
  C 832.88 841.44 837.76 871.73 838.04 903.01
  Q 838.20 920.32 837.14 936.67
  A 0.75 0.74 1.8 0 0 837.89 937.46
  Q 844.11 937.46 844.63 937.45
  C 859.91 937.17 872.16 950.15 874.87 964.65
  C 878.18 982.39 871.80 1003.24 853.52 1009.19
  Q 848.72 1010.75 834.30 1010.75
  Q 568.40 1010.70 413.25 1010.71
  Q 391.44 1010.71 383.20 991.09
  Q 375.79 973.44 382.92 956.91
  Q 389.22 942.30 404.43 938.21
  C 408.10 937.23 412.81 937.41 416.56 937.42
  A 1.08 1.08 0.0 0 0 417.64 936.27
  C 416.30 915.43 415.88 894.15 418.04 873.25
  Q 422.33 831.69 440.76 794.73
  C 444.92 786.39 450.36 776.68 455.98 768.11
  C 475.61 738.26 500.39 712.20 526.06 687.89
  C 555.73 659.80 569.89 647.16 591.24 624.09
  A 0.60 0.60 0.0 0 0 591.23 623.26
  Q 584.64 616.54 574.73 606.47
  Q 568.98 600.63 557.34 590.37
  Q 550.07 583.95 521.12 559.14
  Q 512.76 551.98 499.70 538.94
  C 470.35 509.66 448.04 475.95 434.29 437.72
  Q 433.32 435.03 429.82 423.14
  C 423.08 400.25 419.20 377.08 418.49 353.01
  Q 418.08 339.06 418.70 324.28
  A 0.69 0.69 0.0 0 0 417.99 323.56
  C 409.01 323.81 402.09 323.71 394.54 318.31
  Q 386.16 312.32 382.79 302.31
  C 375.34 280.23 384.35 253.01 410.98 251.19
  Q 413.93 250.99 426.00 250.98
  Q 581.10 250.88 832.58 250.98
  Q 848.75 250.99 852.84 252.08
  C 866.66 255.78 874.65 268.40 876.07 282.51
  C 877.73 299.01 871.19 316.07 854.88 321.91
  C 849.69 323.76 843.67 323.74 838.00 323.58
  A 0.63 0.63 0.0 0 0 837.36 324.22
  C 837.89 348.14 836.79 373.06 832.67 395.77
  Q 829.13 415.25 821.68 437.37
  Q 813.39 461.93 800.71 482.90
  Q 786.50 506.39 771.07 523.35
  Q 751.67 544.68 727.02 565.53
  Q 708.92 580.85 703.85 585.09
  Q 682.24 603.21 664.69 622.95
  Z
  M 855.52 283.82
  A 11.90 11.90 0.0 0 0 843.62 271.92
  L 413.14 271.92
  A 11.90 11.90 0.0 0 0 401.24 283.82
  L 401.24 291.04
  A 11.90 11.90 0.0 0 0 413.14 302.94
  L 843.62 302.94
  A 11.90 11.90 0.0 0 0 855.52 291.04
  L 855.52 283.82
  Z
  M 626.20 831.55
  Q 628.93 824.92 634.37 816.59
  Q 636.59 813.20 639.72 810.28
  Q 641.39 808.72 645.57 804.43
  Q 648.78 801.12 655.92 797.41
  Q 668.97 790.62 681.49 789.68
  Q 686.89 789.27 694.75 789.31
  Q 697.74 789.32 699.06 790.39
  Q 701.25 792.18 701.41 794.11
  Q 703.02 814.12 695.11 832.08
  Q 691.82 839.56 687.79 844.67
  C 675.14 860.75 656.66 868.54 635.96 867.91
  A 0.66 0.66 0.0 0 0 635.28 868.57
  L 635.28 884.80
  A 0.67 0.67 0.0 0 0 635.92 885.47
  Q 656.48 886.22 676.80 891.97
  Q 693.79 896.77 705.15 901.89
  Q 725.45 911.05 745.57 920.15
  Q 769.79 931.10 795.35 936.16
  Q 802.12 937.50 815.88 937.11
  A 0.62 0.61 1.0 0 0 816.48 936.54
  Q 818.70 907.94 816.62 880.63
  Q 815.75 869.18 813.14 856.32
  Q 801.20 797.41 763.14 750.85
  Q 742.93 726.12 718.59 703.40
  Q 694.05 680.51 665.67 653.34
  Q 660.55 648.44 656.85 644.35
  C 653.17 640.27 647.67 635.23 643.29 629.63
  A 5.80 5.59 -75.3 0 1 642.44 628.11
  Q 639.81 621.11 645.10 615.29
  Q 654.77 604.65 661.47 596.99
  Q 665.76 592.09 685.66 573.91
  Q 690.91 569.12 713.56 550.32
  Q 731.13 535.73 746.17 520.42
  C 769.01 497.17 787.57 470.04 799.26 440.01
  Q 811.71 408.03 815.73 370.51
  C 817.36 355.38 817.00 337.51 816.89 324.36
  A 0.82 0.82 0.0 0 0 816.07 323.54
  L 439.99 323.54
  A 0.42 0.41 -88.5 0 0 439.58 323.94
  Q 438.84 338.04 439.15 351.00
  Q 439.67 372.78 444.66 397.62
  C 455.44 451.34 485.81 499.72 526.53 536.54
  Q 536.73 545.75 542.08 550.32
  Q 564.38 569.34 569.96 574.33
  C 576.72 580.38 582.17 586.05 588.20 591.29
  C 594.72 596.96 599.57 603.13 605.17 608.62
  A 1.10 1.09 44.3 0 0 606.72 608.61
  Q 612.74 602.50 615.14 595.41
  Q 616.45 591.52 616.28 580.96
  Q 615.97 562.83 616.35 544.50
  Q 616.39 542.41 616.05 535.27
  A 1.62 1.60 -73.9 0 0 615.38 534.04
  Q 604.80 526.53 597.08 515.11
  C 576.79 485.09 576.69 450.47 592.78 418.26
  Q 603.01 397.76 620.74 381.50
  C 624.14 378.38 626.78 377.80 630.04 381.21
  Q 639.73 391.30 646.95 401.56
  Q 660.39 420.67 665.50 443.26
  Q 670.23 464.19 665.49 484.96
  C 663.98 491.61 661.23 497.32 658.38 503.34
  A 3.57 3.57 0.0 0 1 655.97 505.28
  Q 647.89 507.17 638.62 506.70
  A 0.57 0.57 0.0 0 1 638.12 505.90
  C 640.13 501.23 643.64 495.87 645.71 490.33
  Q 653.13 470.51 648.65 449.37
  C 646.35 438.52 642.49 427.30 636.47 417.93
  C 631.90 410.81 629.60 407.03 625.61 402.71
  A 0.71 0.71 0.0 0 0 624.60 402.68
  Q 619.71 407.44 616.61 412.34
  C 612.81 418.34 608.74 424.42 606.17 431.31
  Q 602.81 440.31 602.75 440.51
  C 593.93 469.81 600.89 499.09 624.24 519.48
  A 1.73 1.73 0.0 0 0 625.73 519.86
  Q 627.98 519.38 630.09 519.90
  Q 645.07 523.60 659.21 520.28
  Q 669.50 517.86 680.15 511.57
  C 686.73 507.68 692.55 502.19 697.78 497.03
  Q 700.87 493.98 704.61 488.45
  C 706.86 485.12 708.33 483.67 712.18 482.94
  C 717.66 481.89 722.87 486.08 722.19 491.75
  Q 721.89 494.32 718.56 499.04
  C 699.82 525.57 669.22 543.52 635.91 538.62
  A 0.48 0.48 0.0 0 0 635.36 539.10
  Q 635.48 564.77 635.26 587.50
  C 635.21 593.87 634.44 599.14 631.33 605.07
  Q 627.92 611.58 626.95 612.93
  Q 623.46 617.77 617.41 624.15
  C 615.56 626.10 613.86 628.64 612.45 630.20
  Q 592.37 652.56 578.39 665.89
  C 572.50 671.51 569.33 675.23 564.40 679.56
  C 559.75 683.66 554.93 688.66 551.01 692.28
  C 531.81 710.01 513.77 727.88 496.53 747.79
  Q 475.55 772.04 461.05 800.27
  C 447.14 827.34 439.31 856.91 437.73 886.52
  Q 436.52 909.31 438.15 936.44
  A 0.70 0.69 0.5 0 0 438.80 937.10
  C 457.43 938.22 475.26 934.50 492.17 927.67
  C 501.72 923.82 510.76 920.20 521.30 915.30
  Q 537.91 907.59 547.03 903.46
  C 555.61 899.57 565.72 896.01 573.13 893.65
  Q 594.41 886.88 616.94 885.46
  A 0.70 0.69 88.3 0 0 617.59 884.76
  L 617.59 867.57
  A 1.25 1.25 0.0 0 0 616.31 866.32
  C 610.77 866.44 606.24 866.63 601.33 865.60
  C 584.94 862.18 568.61 851.95 561.34 836.69
  C 558.66 831.06 556.56 827.48 555.41 822.85
  Q 553.47 814.99 553.14 806.69
  C 553.01 803.31 554.05 799.29 558.05 798.75
  Q 570.70 797.03 582.92 798.88
  Q 589.84 799.93 600.53 804.96
  C 606.66 807.84 614.39 814.96 617.97 819.28
  Q 622.70 824.96 625.54 831.55
  A 0.36 0.36 0.0 0 0 626.20 831.55
  Z
  M 684.60 806.04
  Q 673.52 806.46 664.37 811.61
  Q 657.63 815.40 654.53 818.05
  Q 650.22 821.74 644.80 829.99
  Q 642.44 833.59 640.21 840.18
  Q 637.33 848.74 636.76 850.93
  A 0.74 0.74 0.0 0 0 637.50 851.85
  Q 657.75 851.36 671.77 837.99
  Q 674.82 835.08 677.05 831.06
  C 679.99 825.76 682.76 820.69 683.80 815.05
  Q 684.61 810.64 684.99 806.45
  A 0.38 0.37 2.0 0 0 684.60 806.04
  Z
  M 570.53 814.75
  Q 570.36 814.96 570.39 815.11
  Q 572.52 825.72 579.47 834.06
  Q 583.62 839.03 586.08 840.99
  Q 588.55 842.95 594.32 845.87
  Q 604.01 850.78 614.82 850.47
  Q 614.98 850.47 615.15 850.25
  Q 615.31 850.04 615.28 849.89
  Q 613.15 839.28 606.20 830.95
  Q 602.05 825.98 599.59 824.02
  Q 597.12 822.05 591.35 819.13
  Q 581.66 814.23 570.85 814.53
  Q 570.69 814.54 570.53 814.75
  Z
  M 627.66 938.11
  Q 715.24 938.05 731.13 938.31
  Q 736.13 938.38 741.20 938.43
  A 0.27 0.27 0.0 0 0 741.30 937.91
  Q 725.00 931.23 705.35 922.10
  C 695.92 917.72 683.83 913.33 675.73 910.87
  C 660.38 906.20 643.89 903.29 627.64 903.30
  C 611.40 903.31 594.91 906.24 579.57 910.93
  C 571.47 913.40 559.38 917.81 549.96 922.20
  Q 530.32 931.35 514.03 938.05
  A 0.27 0.27 0.0 0 0 514.13 938.57
  Q 519.20 938.52 524.20 938.44
  Q 540.09 938.16 627.66 938.11
  Z
  M 854.70 970.43
  A 11.61 11.61 0.0 0 0 843.09 958.82
  L 412.43 958.82
  A 11.61 11.61 0.0 0 0 400.82 970.43
  L 400.82 978.15
  A 11.61 11.61 0.0 0 0 412.43 989.76
  L 843.09 989.76
  A 11.61 11.61 0.0 0 0 854.70 978.15
  L 854.70 970.43
  Z"
/>
<rect fill="#577c67" x="401.24" y="271.92" width="454.28" height="31.02" rx="11.90"/>
<path fill="#577c67" d="
  M 626.20 831.55
  A 0.36 0.36 0.0 0 1 625.54 831.55
  Q 622.70 824.96 617.97 819.28
  C 614.39 814.96 606.66 807.84 600.53 804.96
  Q 589.84 799.93 582.92 798.88
  Q 570.70 797.03 558.05 798.75
  C 554.05 799.29 553.01 803.31 553.14 806.69
  Q 553.47 814.99 555.41 822.85
  C 556.56 827.48 558.66 831.06 561.34 836.69
  C 568.61 851.95 584.94 862.18 601.33 865.60
  C 606.24 866.63 610.77 866.44 616.31 866.32
  A 1.25 1.25 0.0 0 1 617.59 867.57
  L 617.59 884.76
  A 0.70 0.69 88.3 0 1 616.94 885.46
  Q 594.41 886.88 573.13 893.65
  C 565.72 896.01 555.61 899.57 547.03 903.46
  Q 537.91 907.59 521.30 915.30
  C 510.76 920.20 501.72 923.82 492.17 927.67
  C 475.26 934.50 457.43 938.22 438.80 937.10
  A 0.70 0.69 0.5 0 1 438.15 936.44
  Q 436.52 909.31 437.73 886.52
  C 439.31 856.91 447.14 827.34 461.05 800.27
  Q 475.55 772.04 496.53 747.79
  C 513.77 727.88 531.81 710.01 551.01 692.28
  C 554.93 688.66 559.75 683.66 564.40 679.56
  C 569.33 675.23 572.50 671.51 578.39 665.89
  Q 592.37 652.56 612.45 630.20
  C 613.86 628.64 615.56 626.10 617.41 624.15
  Q 623.46 617.77 626.95 612.93
  Q 627.92 611.58 631.33 605.07
  C 634.44 599.14 635.21 593.87 635.26 587.50
  Q 635.48 564.77 635.36 539.10
  A 0.48 0.48 0.0 0 1 635.91 538.62
  C 669.22 543.52 699.82 525.57 718.56 499.04
  Q 721.89 494.32 722.19 491.75
  C 722.87 486.08 717.66 481.89 712.18 482.94
  C 708.33 483.67 706.86 485.12 704.61 488.45
  Q 700.87 493.98 697.78 497.03
  C 692.55 502.19 686.73 507.68 680.15 511.57
  Q 669.50 517.86 659.21 520.28
  Q 645.07 523.60 630.09 519.90
  Q 627.98 519.38 625.73 519.86
  A 1.73 1.73 0.0 0 1 624.24 519.48
  C 600.89 499.09 593.93 469.81 602.75 440.51
  Q 602.81 440.31 606.17 431.31
  C 608.74 424.42 612.81 418.34 616.61 412.34
  Q 619.71 407.44 624.60 402.68
  A 0.71 0.71 0.0 0 1 625.61 402.71
  C 629.60 407.03 631.90 410.81 636.47 417.93
  C 642.49 427.30 646.35 438.52 648.65 449.37
  Q 653.13 470.51 645.71 490.33
  C 643.64 495.87 640.13 501.23 638.12 505.90
  A 0.57 0.57 0.0 0 0 638.62 506.70
  Q 647.89 507.17 655.97 505.28
  A 3.57 3.57 0.0 0 0 658.38 503.34
  C 661.23 497.32 663.98 491.61 665.49 484.96
  Q 670.23 464.19 665.50 443.26
  Q 660.39 420.67 646.95 401.56
  Q 639.73 391.30 630.04 381.21
  C 626.78 377.80 624.14 378.38 620.74 381.50
  Q 603.01 397.76 592.78 418.26
  C 576.69 450.47 576.79 485.09 597.08 515.11
  Q 604.80 526.53 615.38 534.04
  A 1.62 1.60 -73.9 0 1 616.05 535.27
  Q 616.39 542.41 616.35 544.50
  Q 615.97 562.83 616.28 580.96
  Q 616.45 591.52 615.14 595.41
  Q 612.74 602.50 606.72 608.61
  A 1.10 1.09 44.3 0 1 605.17 608.62
  C 599.57 603.13 594.72 596.96 588.20 591.29
  C 582.17 586.05 576.72 580.38 569.96 574.33
  Q 564.38 569.34 542.08 550.32
  Q 536.73 545.75 526.53 536.54
  C 485.81 499.72 455.44 451.34 444.66 397.62
  Q 439.67 372.78 439.15 351.00
  Q 438.84 338.04 439.58 323.94
  A 0.42 0.41 -88.5 0 1 439.99 323.54
  L 816.07 323.54
  A 0.82 0.82 0.0 0 1 816.89 324.36
  C 817.00 337.51 817.36 355.38 815.73 370.51
  Q 811.71 408.03 799.26 440.01
  C 787.57 470.04 769.01 497.17 746.17 520.42
  Q 731.13 535.73 713.56 550.32
  Q 690.91 569.12 685.66 573.91
  Q 665.76 592.09 661.47 596.99
  Q 654.77 604.65 645.10 615.29
  Q 639.81 621.11 642.44 628.11
  A 5.80 5.59 -75.3 0 0 643.29 629.63
  C 647.67 635.23 653.17 640.27 656.85 644.35
  Q 660.55 648.44 665.67 653.34
  Q 694.05 680.51 718.59 703.40
  Q 742.93 726.12 763.14 750.85
  Q 801.20 797.41 813.14 856.32
  Q 815.75 869.18 816.62 880.63
  Q 818.70 907.94 816.48 936.54
  A 0.62 0.61 1.0 0 1 815.88 937.11
  Q 802.12 937.50 795.35 936.16
  Q 769.79 931.10 745.57 920.15
  Q 725.45 911.05 705.15 901.89
  Q 693.79 896.77 676.80 891.97
  Q 656.48 886.22 635.92 885.47
  A 0.67 0.67 0.0 0 1 635.28 884.80
  L 635.28 868.57
  A 0.66 0.66 0.0 0 1 635.96 867.91
  C 656.66 868.54 675.14 860.75 687.79 844.67
  Q 691.82 839.56 695.11 832.08
  Q 703.02 814.12 701.41 794.11
  Q 701.25 792.18 699.06 790.39
  Q 697.74 789.32 694.75 789.31
  Q 686.89 789.27 681.49 789.68
  Q 668.97 790.62 655.92 797.41
  Q 648.78 801.12 645.57 804.43
  Q 641.39 808.72 639.72 810.28
  Q 636.59 813.20 634.37 816.59
  Q 628.93 824.92 626.20 831.55
  Z
  M 627.3252 649.5368
  A 9.53 9.19 -86.6 0 0 617.5862 658.5050
  A 9.53 9.19 -86.6 0 0 626.1948 668.5632
  A 9.53 9.19 -86.6 0 0 635.9338 659.5950
  A 9.53 9.19 -86.6 0 0 627.3252 649.5368
  Z
  M 635.88 692.44
  A 9.18 9.18 0.0 0 0 626.70 683.26
  A 9.18 9.18 0.0 0 0 617.52 692.44
  A 9.18 9.18 0.0 0 0 626.70 701.62
  A 9.18 9.18 0.0 0 0 635.88 692.44
  Z
  M 635.70 715.82
  A 9.03 9.03 0.0 0 0 626.67 706.79
  A 9.03 9.03 0.0 0 0 617.64 715.82
  A 9.03 9.03 0.0 0 0 626.67 724.85
  A 9.03 9.03 0.0 0 0 635.70 715.82
  Z
  M 626.42 807.10
  A 2.08 2.08 0.0 0 0 628.30 806.68
  Q 630.88 804.51 636.30 798.24
  C 642.43 791.14 644.97 785.23 644.88 775.54
  Q 644.78 765.95 641.28 758.96
  Q 637.71 751.81 632.89 744.87
  Q 630.90 742.00 628.65 740.01
  A 1.60 1.54 -20.4 0 0 627.75 739.62
  Q 623.98 739.27 621.77 742.54
  Q 617.59 748.73 612.57 757.31
  C 608.69 763.95 606.17 775.26 608.44 783.34
  Q 610.88 792.03 616.45 798.05
  Q 621.38 803.39 624.90 806.21
  Q 625.80 806.94 626.42 807.10
  Z"
/>
<ellipse fill="#ffffff" cx="0.00" cy="0.00" transform="translate(626.76,659.05) rotate(-86.6)" rx="9.53" ry="9.19"/>
<circle fill="#ffffff" cx="626.70" cy="692.44" r="9.18"/>
<circle fill="#ffffff" cx="626.67" cy="715.82" r="9.03"/>
<path fill="#ffffff" d="
  M 626.42 807.10
  Q 625.80 806.94 624.90 806.21
  Q 621.38 803.39 616.45 798.05
  Q 610.88 792.03 608.44 783.34
  C 606.17 775.26 608.69 763.95 612.57 757.31
  Q 617.59 748.73 621.77 742.54
  Q 623.98 739.27 627.75 739.62
  A 1.60 1.54 -20.4 0 1 628.65 740.01
  Q 630.90 742.00 632.89 744.87
  Q 637.71 751.81 641.28 758.96
  Q 644.78 765.95 644.88 775.54
  C 644.97 785.23 642.43 791.14 636.30 798.24
  Q 630.88 804.51 628.30 806.68
  A 2.08 2.08 0.0 0 1 626.42 807.10
  Z
  M 626.23 787.20
  Q 626.78 787.20 627.82 785.41
  C 632.37 777.66 630.33 772.05 627.20 764.61
  Q 626.88 763.83 626.47 763.83
  Q 626.07 763.82 625.73 764.59
  C 622.45 771.97 620.29 777.53 624.67 785.38
  Q 625.68 787.19 626.23 787.20
  Z"
/>
<path fill="#577c67" d="
  M 626.47 763.83
  Q 626.88 763.83 627.20 764.61
  C 630.33 772.05 632.37 777.66 627.82 785.41
  Q 626.78 787.20 626.23 787.20
  Q 625.68 787.19 624.67 785.38
  C 620.29 777.53 622.45 771.97 625.73 764.59
  Q 626.07 763.82 626.47 763.83
  Z"
/>
<path fill="#577c67" d="
  M 684.60 806.04
  A 0.38 0.37 2.0 0 1 684.99 806.45
  Q 684.61 810.64 683.80 815.05
  C 682.76 820.69 679.99 825.76 677.05 831.06
  Q 674.82 835.08 671.77 837.99
  Q 657.75 851.36 637.50 851.85
  A 0.74 0.74 0.0 0 1 636.76 850.93
  Q 637.33 848.74 640.21 840.18
  Q 642.44 833.59 644.80 829.99
  Q 650.22 821.74 654.53 818.05
  Q 657.63 815.40 664.37 811.61
  Q 673.52 806.46 684.60 806.04
  Z"
/>
<path fill="#577c67" d="
  M 599.59 824.02
  Q 602.05 825.98 606.20 830.95
  Q 613.15 839.28 615.28 849.89
  Q 615.31 850.04 615.15 850.25
  Q 614.98 850.47 614.82 850.47
  Q 604.01 850.78 594.32 845.87
  Q 588.55 842.95 586.08 840.99
  Q 583.62 839.03 579.47 834.06
  Q 572.52 825.72 570.39 815.11
  Q 570.36 814.96 570.53 814.75
  Q 570.69 814.54 570.85 814.53
  Q 581.66 814.23 591.35 819.13
  Q 597.12 822.05 599.59 824.02
  Z"
/>
<path fill="#577c67" d="
  M 627.64 903.30
  C 643.89 903.29 660.38 906.20 675.73 910.87
  C 683.83 913.33 695.92 917.72 705.35 922.10
  Q 725.00 931.23 741.30 937.91
  A 0.27 0.27 0.0 0 1 741.20 938.43
  Q 736.13 938.38 731.13 938.31
  Q 715.24 938.05 627.66 938.11
  Q 540.09 938.16 524.20 938.44
  Q 519.20 938.52 514.13 938.57
  A 0.27 0.27 0.0 0 1 514.03 938.05
  Q 530.32 931.35 549.96 922.20
  C 559.38 917.81 571.47 913.40 579.57 910.93
  C 594.91 906.24 611.40 903.31 627.64 903.30
  Z"
/>
<rect fill="#577c67" x="400.82" y="958.82" width="453.88" height="30.94" rx="11.61"/>
</svg>
