<?xml version="1.0" encoding="UTF-8" standalone="no"?>
<!DOCTYPE svg PUBLIC "-//W3C//DTD SVG 1.0//EN" "http://www.w3.org/TR/2001/REC-SVG-20010904/DTD/svg10.dtd">
<svg xmlns="http://www.w3.org/2000/svg" version="1.0" viewBox="0.00 0.00 1254.00 1254.00">
<g stroke-width="2.00" fill="none" stroke-linecap="butt">
<path stroke="#acc1b5" vector-effect="non-scaling-stroke" d="
  M 454.52 337.58
  C 359.28 400.35 305.48 513.07 312.97 626.03
  C 319.15 719.34 367.49 808.48 442.33 864.16
  Q 499.13 906.41 569.17 920.84
  Q 622.41 931.80 676.01 922.92
  C 783.13 905.17 872.88 834.12 916.12 734.89
  Q 937.79 685.15 942.27 633.52
  Q 949.38 551.61 916.56 473.99
  C 894.60 422.05 859.21 375.43 813.00 342.98
  C 749.39 298.30 670.19 277.68 593.38 286.70
  Q 518.35 295.50 454.52 337.58"
/>
<path stroke="#acc1b5" vector-effect="non-scaling-stroke" d="
  M 621.40 579.05
  Q 621.12 578.61 617.37 569.32
  Q 615.65 565.06 612.68 559.93
  Q 596.91 532.65 572.60 512.44
  A 3.55 3.53 20.2 0 1 571.31 509.67
  C 571.39 497.75 570.10 487.10 565.29 476.00
  Q 563.00 470.74 559.94 467.10
  C 552.92 458.74 546.27 452.99 536.35 448.85
  Q 521.94 442.83 506.50 443.59
  A 0.56 0.55 -86.0 0 0 505.98 444.05
  C 502.95 460.42 505.59 477.33 514.16 491.30
  C 520.80 502.12 530.11 509.04 542.00 513.62
  C 547.34 515.67 555.49 516.41 559.68 517.16
  Q 562.26 517.61 564.72 519.78
  Q 576.79 530.40 580.59 534.17
  C 586.08 539.61 589.88 544.97 595.61 552.67
  Q 600.81 559.65 604.18 566.48
  Q 612.44 583.19 615.83 594.90
  Q 620.58 611.25 621.55 624.76
  Q 622.42 636.83 622.77 644.59
  C 622.98 649.19 624.45 652.52 626.45 656.50
  A 0.61 0.61 0.0 0 0 627.56 656.44
  L 631.37 646.31
  A 1.55 1.42 60.9 0 0 631.47 645.89
  C 632.29 636.72 632.30 624.41 634.05 613.84
  Q 638.35 587.97 650.51 565.53
  Q 654.55 558.08 659.23 551.69
  Q 673.32 532.43 691.32 518.33
  Q 692.93 517.07 694.75 516.95
  C 709.43 515.98 722.87 510.98 733.25 500.60
  C 747.74 486.12 752.85 464.34 749.54 443.97
  A 0.68 0.68 0.0 0 0 748.89 443.40
  Q 730.21 442.76 713.63 451.09
  Q 709.36 453.23 704.94 457.14
  C 698.66 462.69 693.35 468.08 689.96 475.56
  C 686.09 484.11 683.61 493.22 683.39 502.53
  C 683.31 506.18 683.90 511.02 681.38 513.13
  Q 672.70 520.37 671.34 521.85
  Q 666.57 527.03 663.91 529.75
  C 657.22 536.60 652.84 542.80 647.06 551.34
  Q 641.78 559.15 639.26 564.73
  Q 635.74 572.51 633.14 578.98
  A 0.52 0.52 0.0 0 1 632.13 578.80
  C 631.90 566.62 632.40 554.58 632.35 543.06
  Q 632.26 521.68 632.24 499.63
  C 632.23 495.54 632.03 492.29 634.39 489.63
  Q 640.68 482.53 642.13 480.61
  Q 654.59 464.23 656.34 446.24
  Q 657.52 434.11 653.10 420.73
  C 651.91 417.13 649.43 412.90 648.11 409.92
  Q 646.33 405.93 643.54 402.26
  Q 636.38 392.88 628.00 385.70
  A 0.94 0.93 45.2 0 0 626.80 385.69
  C 598.89 409.13 588.18 446.01 609.97 477.80
  Q 611.22 479.62 618.42 488.05
  C 621.98 492.23 621.93 495.94 621.93 500.25
  Q 621.96 533.65 621.77 559.37
  C 621.73 565.14 622.19 571.72 622.05 578.87
  A 0.35 0.35 0.0 0 1 621.40 579.05"
/>
<path stroke="#acc1b5" vector-effect="non-scaling-stroke" d="
  M 591.88 635.05
  A 0.25 0.25 0.0 0 1 591.50 635.15
  C 580.37 626.44 568.56 619.34 555.04 615.91
  Q 541.88 612.58 528.50 612.11
  Q 517.56 611.74 505.06 612.21
  C 503.32 612.28 501.31 611.87 500.10 610.91
  Q 492.95 605.22 491.06 603.95
  C 474.85 593.02 455.18 591.72 437.97 601.46
  Q 426.59 607.92 417.68 618.09
  A 0.66 0.66 0.0 0 0 417.68 618.97
  Q 426.35 628.69 437.68 635.21
  Q 450.80 642.77 466.75 641.45
  C 480.14 640.34 491.35 633.13 500.59 623.83
  Q 502.11 622.29 504.50 622.22
  Q 518.39 621.81 529.94 622.39
  Q 547.40 623.25 566.29 631.45
  Q 575.88 635.61 582.52 641.56
  Q 597.97 655.40 606.63 674.55
  A 0.32 0.31 11.6 0 1 606.11 674.89
  Q 602.75 671.32 599.31 668.19
  C 594.47 663.78 588.72 661.19 582.46 658.27
  Q 579.31 656.80 574.74 655.99
  C 569.32 655.03 563.73 654.27 558.56 654.81
  C 554.75 655.21 552.92 655.60 548.84 655.16
  Q 546.08 654.87 542.25 654.57
  Q 520.98 652.89 504.36 667.13
  Q 501.24 669.81 498.35 673.85
  Q 487.92 688.44 486.66 706.45
  A 0.77 0.76 9.4 0 0 487.24 707.25
  C 499.32 710.25 514.76 710.70 526.19 705.30
  C 537.01 700.19 543.98 693.43 549.69 682.85
  Q 553.49 675.81 555.60 666.36
  A 3.47 3.46 -89.1 0 1 558.32 663.72
  Q 560.62 663.28 563.16 663.41
  Q 578.75 664.15 590.11 673.27
  C 596.31 678.26 601.94 683.91 605.56 691.25
  Q 609.23 698.71 611.08 705.05
  Q 613.63 713.77 613.20 719.76
  Q 612.27 732.69 607.64 745.32
  Q 606.37 748.76 604.76 751.27
  C 601.75 755.96 599.01 761.08 595.49 765.00
  C 589.58 771.59 577.93 778.68 568.98 780.51
  C 563.00 781.73 557.02 781.84 550.39 782.08
  C 537.77 782.55 524.22 787.46 514.22 793.97
  Q 507.49 798.35 497.99 808.78
  A 3.84 3.83 41.9 0 0 498.29 814.23
  L 498.46 814.38
  A 3.53 3.53 0.0 0 0 503.61 813.87
  Q 507.61 808.60 510.33 806.24
  Q 526.98 791.80 549.54 789.75
  C 554.01 789.35 560.17 789.89 564.84 789.11
  C 575.81 787.28 588.45 782.50 596.74 774.23
  Q 604.28 766.73 605.62 765.11
  C 610.96 758.69 614.75 749.85 617.70 741.95
  Q 620.32 734.91 620.86 729.81
  C 622.79 711.51 621.84 691.63 616.99 672.99
  Q 616.01 669.22 614.15 660.89
  Q 613.58 658.33 607.43 642.14
  C 602.97 630.37 596.27 621.21 588.71 610.04
  C 584.41 603.67 578.31 597.77 572.44 592.24
  Q 552.53 573.46 526.37 563.90
  Q 524.19 563.11 523.42 562.18
  Q 522.07 560.58 521.88 559.04
  C 520.55 548.13 515.91 538.28 509.50 529.83
  C 505.35 524.35 499.05 519.56 492.93 516.22
  C 479.83 509.06 463.05 508.69 448.63 511.91
  A 1.03 1.03 0.0 0 0 447.83 512.96
  Q 448.00 516.99 449.35 525.14
  Q 450.42 531.62 452.77 536.79
  Q 456.64 545.28 458.76 548.50
  C 471.58 568.07 492.78 574.56 515.42 571.67
  A 6.96 6.88 51.9 0 1 518.82 572.10
  Q 526.64 575.17 533.90 578.29
  C 541.96 581.77 548.10 586.15 555.20 591.37
  Q 566.17 599.43 574.02 608.72
  C 580.04 615.85 587.33 625.12 591.90 634.69
  A 0.05 0.03 -76.7 0 1 591.91 634.72
  Q 591.91 634.97 591.88 635.05"
/>
<path stroke="#acc1b5" vector-effect="non-scaling-stroke" d="
  M 648.66 674.25
  C 648.33 673.85 649.69 671.08 650.71 668.47
  Q 651.76 665.80 653.35 663.45
  Q 658.45 655.96 662.45 650.80
  C 665.15 647.33 668.70 645.01 672.45 641.54
  C 676.30 637.97 682.09 634.19 686.79 632.05
  Q 703.19 624.58 720.55 622.57
  Q 730.84 621.38 748.94 622.19
  C 750.94 622.27 752.89 622.93 754.26 624.25
  C 762.39 632.07 772.94 639.05 784.21 640.92
  Q 798.17 643.24 811.17 638.03
  C 820.99 634.09 829.77 626.63 837.09 618.84
  A 0.67 0.66 46.0 0 0 837.10 617.94
  Q 830.00 610.01 820.38 603.65
  Q 800.91 590.76 778.02 597.13
  Q 770.05 599.35 764.19 603.70
  Q 754.70 610.74 753.58 611.56
  Q 752.22 612.55 750.22 612.39
  Q 729.47 610.75 710.06 613.87
  Q 694.74 616.33 684.07 621.85
  Q 673.60 627.27 664.09 634.57
  A 0.32 0.31 -25.4 0 1 663.59 634.40
  Q 663.48 633.94 663.80 633.29
  C 669.09 622.42 676.21 613.69 684.70 604.51
  Q 692.13 596.47 697.72 592.44
  Q 708.88 584.40 712.42 582.41
  Q 721.38 577.37 734.81 572.34
  Q 737.09 571.48 738.76 571.65
  C 761.71 573.88 782.97 568.62 796.47 548.76
  C 804.10 537.52 807.30 526.00 808.48 512.91
  A 0.87 0.86 9.2 0 0 807.81 511.99
  C 783.57 506.53 758.79 511.36 743.64 531.91
  Q 735.76 542.61 732.90 557.56
  C 732.50 559.67 731.50 562.82 729.70 563.46
  Q 719.06 567.25 706.09 574.57
  Q 698.30 578.97 692.14 583.91
  C 683.96 590.47 675.16 598.07 668.91 606.41
  C 662.36 615.16 655.77 624.44 650.93 634.43
  Q 646.50 643.55 645.72 645.96
  C 643.18 653.75 641.04 659.36 639.16 667.12
  Q 636.77 677.00 635.91 681.30
  Q 632.84 696.70 632.58 714.77
  Q 632.44 724.18 634.35 732.52
  Q 636.42 741.60 639.55 749.63
  C 640.97 753.26 644.21 757.75 645.52 760.24
  Q 647.92 764.80 650.75 767.71
  Q 659.71 776.96 665.78 780.51
  Q 675.30 786.07 689.51 789.13
  Q 692.12 789.70 702.78 789.84
  C 720.38 790.07 740.19 799.48 750.58 813.67
  A 3.80 3.79 -36.4 0 0 755.92 814.47
  L 756.12 814.32
  A 3.73 3.72 -38.5 0 0 756.74 808.94
  Q 750.04 800.98 742.95 795.81
  Q 726.91 784.08 705.01 782.00
  Q 703.12 781.83 696.49 781.76
  Q 688.80 781.69 682.55 779.62
  Q 658.83 771.80 648.50 749.02
  Q 641.41 733.38 641.48 719.12
  Q 641.57 699.35 654.91 682.14
  Q 665.54 668.41 683.43 664.34
  Q 690.64 662.70 697.09 663.76
  A 2.01 2.01 0.0 0 1 698.73 665.35
  Q 701.56 679.35 709.92 690.57
  C 715.35 697.87 721.38 701.76 729.72 705.51
  Q 736.19 708.42 744.26 709.07
  Q 756.41 710.04 767.32 706.99
  A 1.11 1.11 0.0 0 0 768.13 705.81
  C 767.62 700.89 766.39 692.58 764.23 687.60
  C 758.47 674.34 751.42 665.95 738.67 659.10
  C 733.39 656.26 724.83 654.71 719.51 654.52
  C 714.09 654.33 706.06 655.75 699.68 655.14
  C 692.06 654.40 685.05 654.79 677.58 656.29
  Q 675.41 656.73 672.37 658.31
  C 668.49 660.34 663.80 661.99 660.01 664.81
  Q 654.39 668.98 649.23 674.28
  A 0.38 0.38 0.0 0 1 648.66 674.25"
/>
<path stroke="#acc1b5" vector-effect="non-scaling-stroke" d="
  M 626.66 749.12
  Q 624.63 751.82 621.00 758.02
  Q 619.83 760.02 617.69 766.96
  Q 615.46 774.24 608.43 787.72
  C 606.66 791.11 604.01 793.69 601.50 796.94
  Q 598.47 800.87 595.58 803.21
  C 587.96 809.40 578.60 812.88 568.27 816.47
  C 563.33 818.18 557.17 821.51 552.96 825.83
  Q 547.37 831.56 543.89 837.34
  A 3.74 3.74 0.0 0 0 544.93 842.33
  L 545.19 842.51
  A 3.33 3.32 -55.1 0 0 549.84 841.68
  Q 550.85 840.21 552.84 836.62
  C 555.60 831.63 561.51 827.69 566.96 824.43
  Q 569.44 822.95 576.32 820.64
  C 582.28 818.64 589.99 815.87 595.74 811.53
  Q 602.97 806.07 607.21 802.18
  A 0.51 0.51 0.0 0 1 608.06 802.57
  Q 608.02 804.58 608.30 809.82
  C 608.80 819.18 605.54 829.52 601.16 838.14
  Q 598.70 842.95 591.46 849.71
  A 3.60 3.59 48.4 0 0 591.17 854.65
  L 591.34 854.86
  A 3.26 3.26 0.0 0 0 596.19 855.00
  C 603.65 847.67 609.88 839.17 612.37 828.88
  Q 614.85 818.59 615.11 813.30
  C 615.41 807.03 614.42 799.49 615.93 793.09
  Q 616.87 789.12 618.91 784.15
  Q 620.30 780.75 626.29 767.44
  A 0.59 0.59 0.0 0 1 627.15 767.19
  Q 627.69 767.55 628.00 768.29
  C 629.97 772.95 631.35 776.57 634.11 781.96
  C 636.84 787.28 639.73 795.34 639.39 801.51
  Q 638.94 810.00 639.31 815.72
  Q 639.65 820.86 643.07 832.96
  C 645.33 840.96 653.18 850.27 658.88 855.51
  C 661.59 858.00 664.70 854.53 664.42 851.55
  A 1.72 1.71 -68.4 0 0 664.00 850.57
  Q 662.25 848.51 661.84 848.17
  Q 654.92 842.35 650.93 832.86
  Q 647.28 824.16 646.60 817.52
  C 646.10 812.54 646.58 806.99 646.41 802.49
  A 0.37 0.37 0.0 0 1 647.03 802.21
  Q 653.24 808.21 661.58 813.74
  Q 663.59 815.07 666.02 816.04
  Q 677.06 820.43 682.21 822.31
  C 689.40 824.94 696.68 829.39 701.18 835.83
  Q 702.14 837.21 705.04 841.87
  A 2.65 2.65 0.0 0 0 707.85 843.07
  Q 711.36 842.34 711.63 839.47
  A 2.06 2.03 37.3 0 0 711.49 838.50
  Q 710.81 836.80 708.64 833.85
  Q 698.28 819.71 681.54 814.50
  C 670.74 811.13 662.41 807.45 654.98 799.53
  Q 646.70 790.71 641.88 779.65
  Q 636.07 766.32 631.40 754.32
  Q 630.32 751.56 628.06 749.06
  A 0.91 0.91 0.0 0 0 626.66 749.12"
/>
<path stroke="#acc1b5" vector-effect="non-scaling-stroke" d="
  M 608.07 440.61
  Q 608.08 444.91 609.06 449.76
  Q 612.79 468.14 626.05 480.97
  Q 627.06 481.95 627.47 481.95
  Q 627.89 481.95 628.89 480.97
  Q 642.12 468.10 645.80 449.71
  Q 646.77 444.86 646.76 440.55
  Q 646.76 436.25 645.77 431.40
  Q 642.04 413.02 628.78 400.19
  Q 627.77 399.22 627.36 399.22
  Q 626.95 399.22 625.94 400.20
  Q 612.71 413.06 609.04 431.45
  Q 608.06 436.31 608.07 440.61"
/>
<path stroke="#acc1b5" vector-effect="non-scaling-stroke" d="
  M 514.21 453.35
  C 512.83 466.05 517.17 481.99 525.78 491.65
  Q 539.43 506.94 560.72 507.17
  A 0.75 0.75 0.0 0 0 561.48 506.38
  L 560.59 490.78
  A 3.01 2.81 -57.0 0 0 560.47 490.10
  Q 557.08 479.68 550.78 471.17
  C 545.73 464.35 538.47 460.04 530.51 456.53
  Q 523.10 453.26 514.71 452.92
  A 0.48 0.48 0.0 0 0 514.21 453.35"
/>
<path stroke="#acc1b5" vector-effect="non-scaling-stroke" d="
  M 704.75 469.52
  C 696.12 479.30 691.94 493.11 692.93 506.23
  Q 693.00 507.17 693.28 507.41
  Q 693.53 507.64 694.47 507.59
  C 707.62 506.94 720.79 501.06 729.42 491.29
  C 738.05 481.51 742.23 467.70 741.24 454.57
  Q 741.17 453.64 740.89 453.39
  Q 740.64 453.17 739.70 453.22
  C 726.56 453.87 713.38 459.74 704.75 469.52"
/>
<path stroke="#acc1b5" vector-effect="non-scaling-stroke" d="
  M 494.91 528.70
  C 485.19 521.03 471.88 517.78 459.49 519.40
  Q 458.61 519.52 458.41 519.77
  Q 458.19 520.04 458.28 520.93
  C 459.58 533.36 465.83 545.55 475.55 553.22
  C 485.27 560.90 498.58 564.15 510.98 562.53
  Q 511.86 562.41 512.06 562.16
  Q 512.28 561.88 512.18 561.00
  C 510.88 548.57 504.63 536.38 494.91 528.70"
/>
<path stroke="#acc1b5" vector-effect="non-scaling-stroke" d="
  M 430.86 618.57
  Q 430.86 618.81 430.94 618.89
  C 437.35 625.24 445.39 629.95 454.12 631.68
  C 468.60 634.55 481.93 629.39 492.16 618.58
  Q 492.24 618.50 492.28 618.39
  Q 492.30 618.30 492.30 618.15
  Q 492.30 617.97 492.27 617.88
  Q 492.24 617.77 492.15 617.69
  C 481.79 607.02 468.39 602.03 453.95 605.09
  C 445.24 606.93 437.26 611.74 430.94 618.17
  Q 430.86 618.26 430.86 618.57"
/>
<path stroke="#acc1b5" vector-effect="non-scaling-stroke" d="
  M 530.00 693.12
  C 538.86 686.78 544.86 676.33 546.52 665.45
  Q 546.64 664.68 546.46 664.42
  Q 546.30 664.20 545.53 664.06
  C 534.70 662.11 522.86 664.42 514.00 670.76
  C 505.14 677.10 499.13 687.56 497.47 698.43
  Q 497.35 699.21 497.53 699.46
  Q 497.70 699.69 498.47 699.83
  C 509.30 701.77 521.13 699.46 530.00 693.12"
/>
<path stroke="#acc1b5" vector-effect="non-scaling-stroke" d="
  M 760.22 528.34
  C 750.19 535.90 743.58 548.12 741.98 560.70
  Q 741.86 561.59 742.08 561.88
  Q 742.27 562.13 743.17 562.27
  C 755.70 564.20 769.26 561.20 779.29 553.64
  C 789.32 546.08 795.94 533.86 797.54 521.28
  Q 797.65 520.39 797.43 520.10
  Q 797.24 519.84 796.35 519.71
  C 783.82 517.78 770.25 520.78 760.22 528.34"
/>
<path stroke="#acc1b5" vector-effect="non-scaling-stroke" d="
  M 823.75 618.43
  Q 823.75 618.19 823.66 618.10
  C 817.33 611.68 809.34 606.88 800.63 605.05
  C 786.18 602.01 772.79 607.02 762.43 617.71
  Q 762.35 617.79 762.31 617.90
  Q 762.29 617.99 762.29 618.14
  Q 762.29 618.32 762.31 618.41
  Q 762.35 618.52 762.43 618.60
  C 772.68 629.39 786.02 634.54 800.50 631.64
  C 809.22 629.90 817.26 625.18 823.66 618.82
  Q 823.74 618.74 823.75 618.43"
/>
<path stroke="#acc1b5" vector-effect="non-scaling-stroke" d="
  M 708.20 664.21
  Q 707.77 664.80 708.07 666.05
  Q 712.17 683.62 725.05 692.86
  Q 737.93 702.10 755.89 700.35
  Q 757.17 700.23 757.59 699.64
  Q 758.02 699.05 757.72 697.80
  Q 753.62 680.23 740.74 670.99
  Q 727.86 661.75 709.90 663.50
  Q 708.62 663.62 708.20 664.21"
/>
</g>
<path fill="#ffffff" d="
  M 1254.00 0.00
  L 1254.00 1254.00
  L 0.00 1254.00
  L 0.00 0.00
  L 1254.00 0.00
  Z
  M 454.52 337.58
  C 359.28 400.35 305.48 513.07 312.97 626.03
  C 319.15 719.34 367.49 808.48 442.33 864.16
  Q 499.13 906.41 569.17 920.84
  Q 622.41 931.80 676.01 922.92
  C 783.13 905.17 872.88 834.12 916.12 734.89
  Q 937.79 685.15 942.27 633.52
  Q 949.38 551.61 916.56 473.99
  C 894.60 422.05 859.21 375.43 813.00 342.98
  C 749.39 298.30 670.19 277.68 593.38 286.70
  Q 518.35 295.50 454.52 337.58
  Z"
/>
<path fill="#59836a" d="
  M 312.97 626.03
  C 305.48 513.07 359.28 400.35 454.52 337.58
  Q 518.35 295.50 593.38 286.70
  C 670.19 277.68 749.39 298.30 813.00 342.98
  C 859.21 375.43 894.60 422.05 916.56 473.99
  Q 949.38 551.61 942.27 633.52
  Q 937.79 685.15 916.12 734.89
  C 872.88 834.12 783.13 905.17 676.01 922.92
  Q 622.41 931.80 569.17 920.84
  Q 499.13 906.41 442.33 864.16
  C 367.49 808.48 319.15 719.34 312.97 626.03
  Z
  M 621.40 579.05
  Q 621.12 578.61 617.37 569.32
  Q 615.65 565.06 612.68 559.93
  Q 596.91 532.65 572.60 512.44
  A 3.55 3.53 20.2 0 1 571.31 509.67
  C 571.39 497.75 570.10 487.10 565.29 476.00
  Q 563.00 470.74 559.94 467.10
  C 552.92 458.74 546.27 452.99 536.35 448.85
  Q 521.94 442.83 506.50 443.59
  A 0.56 0.55 -86.0 0 0 505.98 444.05
  C 502.95 460.42 505.59 477.33 514.16 491.30
  C 520.80 502.12 530.11 509.04 542.00 513.62
  C 547.34 515.67 555.49 516.41 559.68 517.16
  Q 562.26 517.61 564.72 519.78
  Q 576.79 530.40 580.59 534.17
  C 586.08 539.61 589.88 544.97 595.61 552.67
  Q 600.81 559.65 604.18 566.48
  Q 612.44 583.19 615.83 594.90
  Q 620.58 611.25 621.55 624.76
  Q 622.42 636.83 622.77 644.59
  C 622.98 649.19 624.45 652.52 626.45 656.50
  A 0.61 0.61 0.0 0 0 627.56 656.44
  L 631.37 646.31
  A 1.55 1.42 60.9 0 0 631.47 645.89
  C 632.29 636.72 632.30 624.41 634.05 613.84
  Q 638.35 587.97 650.51 565.53
  Q 654.55 558.08 659.23 551.69
  Q 673.32 532.43 691.32 518.33
  Q 692.93 517.07 694.75 516.95
  C 709.43 515.98 722.87 510.98 733.25 500.60
  C 747.74 486.12 752.85 464.34 749.54 443.97
  A 0.68 0.68 0.0 0 0 748.89 443.40
  Q 730.21 442.76 713.63 451.09
  Q 709.36 453.23 704.94 457.14
  C 698.66 462.69 693.35 468.08 689.96 475.56
  C 686.09 484.11 683.61 493.22 683.39 502.53
  C 683.31 506.18 683.90 511.02 681.38 513.13
  Q 672.70 520.37 671.34 521.85
  Q 666.57 527.03 663.91 529.75
  C 657.22 536.60 652.84 542.80 647.06 551.34
  Q 641.78 559.15 639.26 564.73
  Q 635.74 572.51 633.14 578.98
  A 0.52 0.52 0.0 0 1 632.13 578.80
  C 631.90 566.62 632.40 554.58 632.35 543.06
  Q 632.26 521.68 632.24 499.63
  C 632.23 495.54 632.03 492.29 634.39 489.63
  Q 640.68 482.53 642.13 480.61
  Q 654.59 464.23 656.34 446.24
  Q 657.52 434.11 653.10 420.73
  C 651.91 417.13 649.43 412.90 648.11 409.92
  Q 646.33 405.93 643.54 402.26
  Q 636.38 392.88 628.00 385.70
  A 0.94 0.93 45.2 0 0 626.80 385.69
  C 598.89 409.13 588.18 446.01 609.97 477.80
  Q 611.22 479.62 618.42 488.05
  C 621.98 492.23 621.93 495.94 621.93 500.25
  Q 621.96 533.65 621.77 559.37
  C 621.73 565.14 622.19 571.72 622.05 578.87
  A 0.35 0.35 0.0 0 1 621.40 579.05
  Z
  M 591.88 635.05
  A 0.25 0.25 0.0 0 1 591.50 635.15
  C 580.37 626.44 568.56 619.34 555.04 615.91
  Q 541.88 612.58 528.50 612.11
  Q 517.56 611.74 505.06 612.21
  C 503.32 612.28 501.31 611.87 500.10 610.91
  Q 492.95 605.22 491.06 603.95
  C 474.85 593.02 455.18 591.72 437.97 601.46
  Q 426.59 607.92 417.68 618.09
  A 0.66 0.66 0.0 0 0 417.68 618.97
  Q 426.35 628.69 437.68 635.21
  Q 450.80 642.77 466.75 641.45
  C 480.14 640.34 491.35 633.13 500.59 623.83
  Q 502.11 622.29 504.50 622.22
  Q 518.39 621.81 529.94 622.39
  Q 547.40 623.25 566.29 631.45
  Q 575.88 635.61 582.52 641.56
  Q 597.97 655.40 606.63 674.55
  A 0.32 0.31 11.6 0 1 606.11 674.89
  Q 602.75 671.32 599.31 668.19
  C 594.47 663.78 588.72 661.19 582.46 658.27
  Q 579.31 656.80 574.74 655.99
  C 569.32 655.03 563.73 654.27 558.56 654.81
  C 554.75 655.21 552.92 655.60 548.84 655.16
  Q 546.08 654.87 542.25 654.57
  Q 520.98 652.89 504.36 667.13
  Q 501.24 669.81 498.35 673.85
  Q 487.92 688.44 486.66 706.45
  A 0.77 0.76 9.4 0 0 487.24 707.25
  C 499.32 710.25 514.76 710.70 526.19 705.30
  C 537.01 700.19 543.98 693.43 549.69 682.85
  Q 553.49 675.81 555.60 666.36
  A 3.47 3.46 -89.1 0 1 558.32 663.72
  Q 560.62 663.28 563.16 663.41
  Q 578.75 664.15 590.11 673.27
  C 596.31 678.26 601.94 683.91 605.56 691.25
  Q 609.23 698.71 611.08 705.05
  Q 613.63 713.77 613.20 719.76
  Q 612.27 732.69 607.64 745.32
  Q 606.37 748.76 604.76 751.27
  C 601.75 755.96 599.01 761.08 595.49 765.00
  C 589.58 771.59 577.93 778.68 568.98 780.51
  C 563.00 781.73 557.02 781.84 550.39 782.08
  C 537.77 782.55 524.22 787.46 514.22 793.97
  Q 507.49 798.35 497.99 808.78
  A 3.84 3.83 41.9 0 0 498.29 814.23
  L 498.46 814.38
  A 3.53 3.53 0.0 0 0 503.61 813.87
  Q 507.61 808.60 510.33 806.24
  Q 526.98 791.80 549.54 789.75
  C 554.01 789.35 560.17 789.89 564.84 789.11
  C 575.81 787.28 588.45 782.50 596.74 774.23
  Q 604.28 766.73 605.62 765.11
  C 610.96 758.69 614.75 749.85 617.70 741.95
  Q 620.32 734.91 620.86 729.81
  C 622.79 711.51 621.84 691.63 616.99 672.99
  Q 616.01 669.22 614.15 660.89
  Q 613.58 658.33 607.43 642.14
  C 602.97 630.37 596.27 621.21 588.71 610.04
  C 584.41 603.67 578.31 597.77 572.44 592.24
  Q 552.53 573.46 526.37 563.90
  Q 524.19 563.11 523.42 562.18
  Q 522.07 560.58 521.88 559.04
  C 520.55 548.13 515.91 538.28 509.50 529.83
  C 505.35 524.35 499.05 519.56 492.93 516.22
  C 479.83 509.06 463.05 508.69 448.63 511.91
  A 1.03 1.03 0.0 0 0 447.83 512.96
  Q 448.00 516.99 449.35 525.14
  Q 450.42 531.62 452.77 536.79
  Q 456.64 545.28 458.76 548.50
  C 471.58 568.07 492.78 574.56 515.42 571.67
  A 6.96 6.88 51.9 0 1 518.82 572.10
  Q 526.64 575.17 533.90 578.29
  C 541.96 581.77 548.10 586.15 555.20 591.37
  Q 566.17 599.43 574.02 608.72
  C 580.04 615.85 587.33 625.12 591.90 634.69
  A 0.05 0.03 -76.7 0 1 591.91 634.72
  Q 591.91 634.97 591.88 635.05
  Z
  M 648.66 674.25
  C 648.33 673.85 649.69 671.08 650.71 668.47
  Q 651.76 665.80 653.35 663.45
  Q 658.45 655.96 662.45 650.80
  C 665.15 647.33 668.70 645.01 672.45 641.54
  C 676.30 637.97 682.09 634.19 686.79 632.05
  Q 703.19 624.58 720.55 622.57
  Q 730.84 621.38 748.94 622.19
  C 750.94 622.27 752.89 622.93 754.26 624.25
  C 762.39 632.07 772.94 639.05 784.21 640.92
  Q 798.17 643.24 811.17 638.03
  C 820.99 634.09 829.77 626.63 837.09 618.84
  A 0.67 0.66 46.0 0 0 837.10 617.94
  Q 830.00 610.01 820.38 603.65
  Q 800.91 590.76 778.02 597.13
  Q 770.05 599.35 764.19 603.70
  Q 754.70 610.74 753.58 611.56
  Q 752.22 612.55 750.22 612.39
  Q 729.47 610.75 710.06 613.87
  Q 694.74 616.33 684.07 621.85
  Q 673.60 627.27 664.09 634.57
  A 0.32 0.31 -25.4 0 1 663.59 634.40
  Q 663.48 633.94 663.80 633.29
  C 669.09 622.42 676.21 613.69 684.70 604.51
  Q 692.13 596.47 697.72 592.44
  Q 708.88 584.40 712.42 582.41
  Q 721.38 577.37 734.81 572.34
  Q 737.09 571.48 738.76 571.65
  C 761.71 573.88 782.97 568.62 796.47 548.76
  C 804.10 537.52 807.30 526.00 808.48 512.91
  A 0.87 0.86 9.2 0 0 807.81 511.99
  C 783.57 506.53 758.79 511.36 743.64 531.91
  Q 735.76 542.61 732.90 557.56
  C 732.50 559.67 731.50 562.82 729.70 563.46
  Q 719.06 567.25 706.09 574.57
  Q 698.30 578.97 692.14 583.91
  C 683.96 590.47 675.16 598.07 668.91 606.41
  C 662.36 615.16 655.77 624.44 650.93 634.43
  Q 646.50 643.55 645.72 645.96
  C 643.18 653.75 641.04 659.36 639.16 667.12
  Q 636.77 677.00 635.91 681.30
  Q 632.84 696.70 632.58 714.77
  Q 632.44 724.18 634.35 732.52
  Q 636.42 741.60 639.55 749.63
  C 640.97 753.26 644.21 757.75 645.52 760.24
  Q 647.92 764.80 650.75 767.71
  Q 659.71 776.96 665.78 780.51
  Q 675.30 786.07 689.51 789.13
  Q 692.12 789.70 702.78 789.84
  C 720.38 790.07 740.19 799.48 750.58 813.67
  A 3.80 3.79 -36.4 0 0 755.92 814.47
  L 756.12 814.32
  A 3.73 3.72 -38.5 0 0 756.74 808.94
  Q 750.04 800.98 742.95 795.81
  Q 726.91 784.08 705.01 782.00
  Q 703.12 781.83 696.49 781.76
  Q 688.80 781.69 682.55 779.62
  Q 658.83 771.80 648.50 749.02
  Q 641.41 733.38 641.48 719.12
  Q 641.57 699.35 654.91 682.14
  Q 665.54 668.41 683.43 664.34
  Q 690.64 662.70 697.09 663.76
  A 2.01 2.01 0.0 0 1 698.73 665.35
  Q 701.56 679.35 709.92 690.57
  C 715.35 697.87 721.38 701.76 729.72 705.51
  Q 736.19 708.42 744.26 709.07
  Q 756.41 710.04 767.32 706.99
  A 1.11 1.11 0.0 0 0 768.13 705.81
  C 767.62 700.89 766.39 692.58 764.23 687.60
  C 758.47 674.34 751.42 665.95 738.67 659.10
  C 733.39 656.26 724.83 654.71 719.51 654.52
  C 714.09 654.33 706.06 655.75 699.68 655.14
  C 692.06 654.40 685.05 654.79 677.58 656.29
  Q 675.41 656.73 672.37 658.31
  C 668.49 660.34 663.80 661.99 660.01 664.81
  Q 654.39 668.98 649.23 674.28
  A 0.38 0.38 0.0 0 1 648.66 674.25
  Z
  M 626.66 749.12
  Q 624.63 751.82 621.00 758.02
  Q 619.83 760.02 617.69 766.96
  Q 615.46 774.24 608.43 787.72
  C 606.66 791.11 604.01 793.69 601.50 796.94
  Q 598.47 800.87 595.58 803.21
  C 587.96 809.40 578.60 812.88 568.27 816.47
  C 563.33 818.18 557.17 821.51 552.96 825.83
  Q 547.37 831.56 543.89 837.34
  A 3.74 3.74 0.0 0 0 544.93 842.33
  L 545.19 842.51
  A 3.33 3.32 -55.1 0 0 549.84 841.68
  Q 550.85 840.21 552.84 836.62
  C 555.60 831.63 561.51 827.69 566.96 824.43
  Q 569.44 822.95 576.32 820.64
  C 582.28 818.64 589.99 815.87 595.74 811.53
  Q 602.97 806.07 607.21 802.18
  A 0.51 0.51 0.0 0 1 608.06 802.57
  Q 608.02 804.58 608.30 809.82
  C 608.80 819.18 605.54 829.52 601.16 838.14
  Q 598.70 842.95 591.46 849.71
  A 3.60 3.59 48.4 0 0 591.17 854.65
  L 591.34 854.86
  A 3.26 3.26 0.0 0 0 596.19 855.00
  C 603.65 847.67 609.88 839.17 612.37 828.88
  Q 614.85 818.59 615.11 813.30
  C 615.41 807.03 614.42 799.49 615.93 793.09
  Q 616.87 789.12 618.91 784.15
  Q 620.30 780.75 626.29 767.44
  A 0.59 0.59 0.0 0 1 627.15 767.19
  Q 627.69 767.55 628.00 768.29
  C 629.97 772.95 631.35 776.57 634.11 781.96
  C 636.84 787.28 639.73 795.34 639.39 801.51
  Q 638.94 810.00 639.31 815.72
  Q 639.65 820.86 643.07 832.96
  C 645.33 840.96 653.18 850.27 658.88 855.51
  C 661.59 858.00 664.70 854.53 664.42 851.55
  A 1.72 1.71 -68.4 0 0 664.00 850.57
  Q 662.25 848.51 661.84 848.17
  Q 654.92 842.35 650.93 832.86
  Q 647.28 824.16 646.60 817.52
  C 646.10 812.54 646.58 806.99 646.41 802.49
  A 0.37 0.37 0.0 0 1 647.03 802.21
  Q 653.24 808.21 661.58 813.74
  Q 663.59 815.07 666.02 816.04
  Q 677.06 820.43 682.21 822.31
  C 689.40 824.94 696.68 829.39 701.18 835.83
  Q 702.14 837.21 705.04 841.87
  A 2.65 2.65 0.0 0 0 707.85 843.07
  Q 711.36 842.34 711.63 839.47
  A 2.06 2.03 37.3 0 0 711.49 838.50
  Q 710.81 836.80 708.64 833.85
  Q 698.28 819.71 681.54 814.50
  C 670.74 811.13 662.41 807.45 654.98 799.53
  Q 646.70 790.71 641.88 779.65
  Q 636.07 766.32 631.40 754.32
  Q 630.32 751.56 628.06 749.06
  A 0.91 0.91 0.0 0 0 626.66 749.12
  Z"
/>
<path fill="#ffffff" d="
  M 621.40 579.05
  A 0.35 0.35 0.0 0 0 622.05 578.87
  C 622.19 571.72 621.73 565.14 621.77 559.37
  Q 621.96 533.65 621.93 500.25
  C 621.93 495.94 621.98 492.23 618.42 488.05
  Q 611.22 479.62 609.97 477.80
  C 588.18 446.01 598.89 409.13 626.80 385.69
  A 0.94 0.93 45.2 0 1 628.00 385.70
  Q 636.38 392.88 643.54 402.26
  Q 646.33 405.93 648.11 409.92
  C 649.43 412.90 651.91 417.13 653.10 420.73
  Q 657.52 434.11 656.34 446.24
  Q 654.59 464.23 642.13 480.61
  Q 640.68 482.53 634.39 489.63
  C 632.03 492.29 632.23 495.54 632.24 499.63
  Q 632.26 521.68 632.35 543.06
  C 632.40 554.58 631.90 566.62 632.13 578.80
  A 0.52 0.52 0.0 0 0 633.14 578.98
  Q 635.74 572.51 639.26 564.73
  Q 641.78 559.15 647.06 551.34
  C 652.84 542.80 657.22 536.60 663.91 529.75
  Q 666.57 527.03 671.34 521.85
  Q 672.70 520.37 681.38 513.13
  C 683.90 511.02 683.31 506.18 683.39 502.53
  C 683.61 493.22 686.09 484.11 689.96 475.56
  C 693.35 468.08 698.66 462.69 704.94 457.14
  Q 709.36 453.23 713.63 451.09
  Q 730.21 442.76 748.89 443.40
  A 0.68 0.68 0.0 0 1 749.54 443.97
  C 752.85 464.34 747.74 486.12 733.25 500.60
  C 722.87 510.98 709.43 515.98 694.75 516.95
  Q 692.93 517.07 691.32 518.33
  Q 673.32 532.43 659.23 551.69
  Q 654.55 558.08 650.51 565.53
  Q 638.35 587.97 634.05 613.84
  C 632.30 624.41 632.29 636.72 631.47 645.89
  A 1.55 1.42 60.9 0 1 631.37 646.31
  L 627.56 656.44
  A 0.61 0.61 0.0 0 1 626.45 656.50
  C 624.45 652.52 622.98 649.19 622.77 644.59
  Q 622.42 636.83 621.55 624.76
  Q 620.58 611.25 615.83 594.90
  Q 612.44 583.19 604.18 566.48
  Q 600.81 559.65 595.61 552.67
  C 589.88 544.97 586.08 539.61 580.59 534.17
  Q 576.79 530.40 564.72 519.78
  Q 562.26 517.61 559.68 517.16
  C 555.49 516.41 547.34 515.67 542.00 513.62
  C 530.11 509.04 520.80 502.12 514.16 491.30
  C 505.59 477.33 502.95 460.42 505.98 444.05
  A 0.56 0.55 -86.0 0 1 506.50 443.59
  Q 521.94 442.83 536.35 448.85
  C 546.27 452.99 552.92 458.74 559.94 467.10
  Q 563.00 470.74 565.29 476.00
  C 570.10 487.10 571.39 497.75 571.31 509.67
  A 3.55 3.53 20.2 0 0 572.60 512.44
  Q 596.91 532.65 612.68 559.93
  Q 615.65 565.06 617.37 569.32
  Q 621.12 578.61 621.40 579.05
  Z
  M 608.07 440.61
  Q 608.08 444.91 609.06 449.76
  Q 612.79 468.14 626.05 480.97
  Q 627.06 481.95 627.47 481.95
  Q 627.89 481.95 628.89 480.97
  Q 642.12 468.10 645.80 449.71
  Q 646.77 444.86 646.76 440.55
  Q 646.76 436.25 645.77 431.40
  Q 642.04 413.02 628.78 400.19
  Q 627.77 399.22 627.36 399.22
  Q 626.95 399.22 625.94 400.20
  Q 612.71 413.06 609.04 431.45
  Q 608.06 436.31 608.07 440.61
  Z
  M 514.21 453.35
  C 512.83 466.05 517.17 481.99 525.78 491.65
  Q 539.43 506.94 560.72 507.17
  A 0.75 0.75 0.0 0 0 561.48 506.38
  L 560.59 490.78
  A 3.01 2.81 -57.0 0 0 560.47 490.10
  Q 557.08 479.68 550.78 471.17
  C 545.73 464.35 538.47 460.04 530.51 456.53
  Q 523.10 453.26 514.71 452.92
  A 0.48 0.48 0.0 0 0 514.21 453.35
  Z
  M 704.75 469.52
  C 696.12 479.30 691.94 493.11 692.93 506.23
  Q 693.00 507.17 693.28 507.41
  Q 693.53 507.64 694.47 507.59
  C 707.62 506.94 720.79 501.06 729.42 491.29
  C 738.05 481.51 742.23 467.70 741.24 454.57
  Q 741.17 453.64 740.89 453.39
  Q 740.64 453.17 739.70 453.22
  C 726.56 453.87 713.38 459.74 704.75 469.52
  Z"
/>
<path fill="#59836a" d="
  M 627.36 399.22
  Q 627.77 399.22 628.78 400.19
  Q 642.04 413.02 645.77 431.40
  Q 646.76 436.25 646.76 440.55
  Q 646.77 444.86 645.80 449.71
  Q 642.12 468.10 628.89 480.97
  Q 627.89 481.95 627.47 481.95
  Q 627.06 481.95 626.05 480.97
  Q 612.79 468.14 609.06 449.76
  Q 608.08 444.91 608.07 440.61
  Q 608.06 436.31 609.04 431.45
  Q 612.71 413.06 625.94 400.20
  Q 626.95 399.22 627.36 399.22
  Z"
/>
<path fill="#59836a" d="
  M 514.21 453.35
  A 0.48 0.48 0.0 0 1 514.71 452.92
  Q 523.10 453.26 530.51 456.53
  C 538.47 460.04 545.73 464.35 550.78 471.17
  Q 557.08 479.68 560.47 490.10
  A 3.01 2.81 -57.0 0 1 560.59 490.78
  L 561.48 506.38
  A 0.75 0.75 0.0 0 1 560.72 507.17
  Q 539.43 506.94 525.78 491.65
  C 517.17 481.99 512.83 466.05 514.21 453.35
  Z"
/>
<path fill="#59836a" d="
  M 740.89 453.39
  Q 741.17 453.64 741.24 454.57
  C 742.23 467.70 738.05 481.51 729.42 491.29
  C 720.79 501.06 707.62 506.94 694.47 507.59
  Q 693.53 507.64 693.28 507.41
  Q 693.00 507.17 692.93 506.23
  C 691.94 493.11 696.12 479.30 704.75 469.52
  C 713.38 459.74 726.56 453.87 739.70 453.22
  Q 740.64 453.17 740.89 453.39
  Z"
/>
<path fill="#ffffff" d="
  M 591.88 635.05
  Q 591.91 634.97 591.91 634.72
  A 0.05 0.03 -76.7 0 0 591.90 634.69
  C 587.33 625.12 580.04 615.85 574.02 608.72
  Q 566.17 599.43 555.20 591.37
  C 548.10 586.15 541.96 581.77 533.90 578.29
  Q 526.64 575.17 518.82 572.10
  A 6.96 6.88 51.9 0 0 515.42 571.67
  C 492.78 574.56 471.58 568.07 458.76 548.50
  Q 456.64 545.28 452.77 536.79
  Q 450.42 531.62 449.35 525.14
  Q 448.00 516.99 447.83 512.96
  A 1.03 1.03 0.0 0 1 448.63 511.91
  C 463.05 508.69 479.83 509.06 492.93 516.22
  C 499.05 519.56 505.35 524.35 509.50 529.83
  C 515.91 538.28 520.55 548.13 521.88 559.04
  Q 522.07 560.58 523.42 562.18
  Q 524.19 563.11 526.37 563.90
  Q 552.53 573.46 572.44 592.24
  C 578.31 597.77 584.41 603.67 588.71 610.04
  C 596.27 621.21 602.97 630.37 607.43 642.14
  Q 613.58 658.33 614.15 660.89
  Q 616.01 669.22 616.99 672.99
  C 621.84 691.63 622.79 711.51 620.86 729.81
  Q 620.32 734.91 617.70 741.95
  C 614.75 749.85 610.96 758.69 605.62 765.11
  Q 604.28 766.73 596.74 774.23
  C 588.45 782.50 575.81 787.28 564.84 789.11
  C 560.17 789.89 554.01 789.35 549.54 789.75
  Q 526.98 791.80 510.33 806.24
  Q 507.61 808.60 503.61 813.87
  A 3.53 3.53 0.0 0 1 498.46 814.38
  L 498.29 814.23
  A 3.84 3.83 41.9 0 1 497.99 808.78
  Q 507.49 798.35 514.22 793.97
  C 524.22 787.46 537.77 782.55 550.39 782.08
  C 557.02 781.84 563.00 781.73 568.98 780.51
  C 577.93 778.68 589.58 771.59 595.49 765.00
  C 599.01 761.08 601.75 755.96 604.76 751.27
  Q 606.37 748.76 607.64 745.32
  Q 612.27 732.69 613.20 719.76
  Q 613.63 713.77 611.08 705.05
  Q 609.23 698.71 605.56 691.25
  C 601.94 683.91 596.31 678.26 590.11 673.27
  Q 578.75 664.15 563.16 663.41
  Q 560.62 663.28 558.32 663.72
  A 3.47 3.46 -89.1 0 0 555.60 666.36
  Q 553.49 675.81 549.69 682.85
  C 543.98 693.43 537.01 700.19 526.19 705.30
  C 514.76 710.70 499.32 710.25 487.24 707.25
  A 0.77 0.76 9.4 0 1 486.66 706.45
  Q 487.92 688.44 498.35 673.85
  Q 501.24 669.81 504.36 667.13
  Q 520.98 652.89 542.25 654.57
  Q 546.08 654.87 548.84 655.16
  C 552.92 655.60 554.75 655.21 558.56 654.81
  C 563.73 654.27 569.32 655.03 574.74 655.99
  Q 579.31 656.80 582.46 658.27
  C 588.72 661.19 594.47 663.78 599.31 668.19
  Q 602.75 671.32 606.11 674.89
  A 0.32 0.31 11.6 0 0 606.63 674.55
  Q 597.97 655.40 582.52 641.56
  Q 575.88 635.61 566.29 631.45
  Q 547.40 623.25 529.94 622.39
  Q 518.39 621.81 504.50 622.22
  Q 502.11 622.29 500.59 623.83
  C 491.35 633.13 480.14 640.34 466.75 641.45
  Q 450.80 642.77 437.68 635.21
  Q 426.35 628.69 417.68 618.97
  A 0.66 0.66 0.0 0 1 417.68 618.09
  Q 426.59 607.92 437.97 601.46
  C 455.18 591.72 474.85 593.02 491.06 603.95
  Q 492.95 605.22 500.10 610.91
  C 501.31 611.87 503.32 612.28 505.06 612.21
  Q 517.56 611.74 528.50 612.11
  Q 541.88 612.58 555.04 615.91
  C 568.56 619.34 580.37 626.44 591.50 635.15
  A 0.25 0.25 0.0 0 0 591.88 635.05
  Z
  M 494.91 528.70
  C 485.19 521.03 471.88 517.78 459.49 519.40
  Q 458.61 519.52 458.41 519.77
  Q 458.19 520.04 458.28 520.93
  C 459.58 533.36 465.83 545.55 475.55 553.22
  C 485.27 560.90 498.58 564.15 510.98 562.53
  Q 511.86 562.41 512.06 562.16
  Q 512.28 561.88 512.18 561.00
  C 510.88 548.57 504.63 536.38 494.91 528.70
  Z
  M 430.86 618.57
  Q 430.86 618.81 430.94 618.89
  C 437.35 625.24 445.39 629.95 454.12 631.68
  C 468.60 634.55 481.93 629.39 492.16 618.58
  Q 492.24 618.50 492.28 618.39
  Q 492.30 618.30 492.30 618.15
  Q 492.30 617.97 492.27 617.88
  Q 492.24 617.77 492.15 617.69
  C 481.79 607.02 468.39 602.03 453.95 605.09
  C 445.24 606.93 437.26 611.74 430.94 618.17
  Q 430.86 618.26 430.86 618.57
  Z
  M 530.00 693.12
  C 538.86 686.78 544.86 676.33 546.52 665.45
  Q 546.64 664.68 546.46 664.42
  Q 546.30 664.20 545.53 664.06
  C 534.70 662.11 522.86 664.42 514.00 670.76
  C 505.14 677.10 499.13 687.56 497.47 698.43
  Q 497.35 699.21 497.53 699.46
  Q 497.70 699.69 498.47 699.83
  C 509.30 701.77 521.13 699.46 530.00 693.12
  Z"
/>
<path fill="#ffffff" d="
  M 648.66 674.25
  A 0.38 0.38 0.0 0 0 649.23 674.28
  Q 654.39 668.98 660.01 664.81
  C 663.80 661.99 668.49 660.34 672.37 658.31
  Q 675.41 656.73 677.58 656.29
  C 685.05 654.79 692.06 654.40 699.68 655.14
  C 706.06 655.75 714.09 654.33 719.51 654.52
  C 724.83 654.71 733.39 656.26 738.67 659.10
  C 751.42 665.95 758.47 674.34 764.23 687.60
  C 766.39 692.58 767.62 700.89 768.13 705.81
  A 1.11 1.11 0.0 0 1 767.32 706.99
  Q 756.41 710.04 744.26 709.07
  Q 736.19 708.42 729.72 705.51
  C 721.38 701.76 715.35 697.87 709.92 690.57
  Q 701.56 679.35 698.73 665.35
  A 2.01 2.01 0.0 0 0 697.09 663.76
  Q 690.64 662.70 683.43 664.34
  Q 665.54 668.41 654.91 682.14
  Q 641.57 699.35 641.48 719.12
  Q 641.41 733.38 648.50 749.02
  Q 658.83 771.80 682.55 779.62
  Q 688.80 781.69 696.49 781.76
  Q 703.12 781.83 705.01 782.00
  Q 726.91 784.08 742.95 795.81
  Q 750.04 800.98 756.74 808.94
  A 3.73 3.72 -38.5 0 1 756.12 814.32
  L 755.92 814.47
  A 3.80 3.79 -36.4 0 1 750.58 813.67
  C 740.19 799.48 720.38 790.07 702.78 789.84
  Q 692.12 789.70 689.51 789.13
  Q 675.30 786.07 665.78 780.51
  Q 659.71 776.96 650.75 767.71
  Q 647.92 764.80 645.52 760.24
  C 644.21 757.75 640.97 753.26 639.55 749.63
  Q 636.42 741.60 634.35 732.52
  Q 632.44 724.18 632.58 714.77
  Q 632.84 696.70 635.91 681.30
  Q 636.77 677.00 639.16 667.12
  C 641.04 659.36 643.18 653.75 645.72 645.96
  Q 646.50 643.55 650.93 634.43
  C 655.77 624.44 662.36 615.16 668.91 606.41
  C 675.16 598.07 683.96 590.47 692.14 583.91
  Q 698.30 578.97 706.09 574.57
  Q 719.06 567.25 729.70 563.46
  C 731.50 562.82 732.50 559.67 732.90 557.56
  Q 735.76 542.61 743.64 531.91
  C 758.79 511.36 783.57 506.53 807.81 511.99
  A 0.87 0.86 9.2 0 1 808.48 512.91
  C 807.30 526.00 804.10 537.52 796.47 548.76
  C 782.97 568.62 761.71 573.88 738.76 571.65
  Q 737.09 571.48 734.81 572.34
  Q 721.38 577.37 712.42 582.41
  Q 708.88 584.40 697.72 592.44
  Q 692.13 596.47 684.70 604.51
  C 676.21 613.69 669.09 622.42 663.80 633.29
  Q 663.48 633.94 663.59 634.40
  A 0.32 0.31 -25.4 0 0 664.09 634.57
  Q 673.60 627.27 684.07 621.85
  Q 694.74 616.33 710.06 613.87
  Q 729.47 610.75 750.22 612.39
  Q 752.22 612.55 753.58 611.56
  Q 754.70 610.74 764.19 603.70
  Q 770.05 599.35 778.02 597.13
  Q 800.91 590.76 820.38 603.65
  Q 830.00 610.01 837.10 617.94
  A 0.67 0.66 46.0 0 1 837.09 618.84
  C 829.77 626.63 820.99 634.09 811.17 638.03
  Q 798.17 643.24 784.21 640.92
  C 772.94 639.05 762.39 632.07 754.26 624.25
  C 752.89 622.93 750.94 622.27 748.94 622.19
  Q 730.84 621.38 720.55 622.57
  Q 703.19 624.58 686.79 632.05
  C 682.09 634.19 676.30 637.97 672.45 641.54
  C 668.70 645.01 665.15 647.33 662.45 650.80
  Q 658.45 655.96 653.35 663.45
  Q 651.76 665.80 650.71 668.47
  C 649.69 671.08 648.33 673.85 648.66 674.25
  Z
  M 760.22 528.34
  C 750.19 535.90 743.58 548.12 741.98 560.70
  Q 741.86 561.59 742.08 561.88
  Q 742.27 562.13 743.17 562.27
  C 755.70 564.20 769.26 561.20 779.29 553.64
  C 789.32 546.08 795.94 533.86 797.54 521.28
  Q 797.65 520.39 797.43 520.10
  Q 797.24 519.84 796.35 519.71
  C 783.82 517.78 770.25 520.78 760.22 528.34
  Z
  M 823.75 618.43
  Q 823.75 618.19 823.66 618.10
  C 817.33 611.68 809.34 606.88 800.63 605.05
  C 786.18 602.01 772.79 607.02 762.43 617.71
  Q 762.35 617.79 762.31 617.90
  Q 762.29 617.99 762.29 618.14
  Q 762.29 618.32 762.31 618.41
  Q 762.35 618.52 762.43 618.60
  C 772.68 629.39 786.02 634.54 800.50 631.64
  C 809.22 629.90 817.26 625.18 823.66 618.82
  Q 823.74 618.74 823.75 618.43
  Z
  M 708.20 664.21
  Q 707.77 664.80 708.07 666.05
  Q 712.17 683.62 725.05 692.86
  Q 737.93 702.10 755.89 700.35
  Q 757.17 700.23 757.59 699.64
  Q 758.02 699.05 757.72 697.80
  Q 753.62 680.23 740.74 670.99
  Q 727.86 661.75 709.90 663.50
  Q 708.62 663.62 708.20 664.21
  Z"
/>
<path fill="#59836a" d="
  M 494.91 528.70
  C 504.63 536.38 510.88 548.57 512.18 561.00
  Q 512.28 561.88 512.06 562.16
  Q 511.86 562.41 510.98 562.53
  C 498.58 564.15 485.27 560.90 475.55 553.22
  C 465.83 545.55 459.58 533.36 458.28 520.93
  Q 458.19 520.04 458.41 519.77
  Q 458.61 519.52 459.49 519.40
  C 471.88 517.78 485.19 521.03 494.91 528.70
  Z"
/>
<path fill="#59836a" d="
  M 760.22 528.34
  C 770.25 520.78 783.82 517.78 796.35 519.71
  Q 797.24 519.84 797.43 520.10
  Q 797.65 520.39 797.54 521.28
  C 795.94 533.86 789.32 546.08 779.29 553.64
  C 769.26 561.20 755.70 564.20 743.17 562.27
  Q 742.27 562.13 742.08 561.88
  Q 741.86 561.59 741.98 560.70
  C 743.58 548.12 750.19 535.90 760.22 528.34
  Z"
/>
<path fill="#59836a" d="
  M 492.30 618.15
  Q 492.30 618.30 492.28 618.39
  Q 492.24 618.50 492.16 618.58
  C 481.93 629.39 468.60 634.55 454.12 631.68
  C 445.39 629.95 437.35 625.24 430.94 618.89
  Q 430.86 618.81 430.86 618.57
  Q 430.86 618.26 430.94 618.17
  C 437.26 611.74 445.24 606.93 453.95 605.09
  C 468.39 602.03 481.79 607.02 492.15 617.69
  Q 492.24 617.77 492.27 617.88
  Q 492.30 617.97 492.30 618.15
  Z"
/>
<path fill="#59836a" d="
  M 823.75 618.43
  Q 823.74 618.74 823.66 618.82
  C 817.26 625.18 809.22 629.90 800.50 631.64
  C 786.02 634.54 772.68 629.39 762.43 618.60
  Q 762.35 618.52 762.31 618.41
  Q 762.29 618.32 762.29 618.14
  Q 762.29 617.99 762.31 617.90
  Q 762.35 617.79 762.43 617.71
  C 772.79 607.02 786.18 602.01 800.63 605.05
  C 809.34 606.88 817.33 611.68 823.66 618.10
  Q 823.75 618.19 823.75 618.43
  Z"
/>
<path fill="#59836a" d="
  M 530.00 693.12
  C 521.13 699.46 509.30 701.77 498.47 699.83
  Q 497.70 699.69 497.53 699.46
  Q 497.35 699.21 497.47 698.43
  C 499.13 687.56 505.14 677.10 514.00 670.76
  C 522.86 664.42 534.70 662.11 545.53 664.06
  Q 546.30 664.20 546.46 664.42
  Q 546.64 664.68 546.52 665.45
  C 544.86 676.33 538.86 686.78 530.00 693.12
  Z"
/>
<path fill="#59836a" d="
  M 740.74 670.99
  Q 753.62 680.23 757.72 697.80
  Q 758.02 699.05 757.59 699.64
  Q 757.17 700.23 755.89 700.35
  Q 737.93 702.10 725.05 692.86
  Q 712.17 683.62 708.07 666.05
  Q 707.77 664.80 708.20 664.21
  Q 708.62 663.62 709.90 663.50
  Q 727.86 661.75 740.74 670.99
  Z"
/>
<path fill="#ffffff" d="
  M 626.66 749.12
  A 0.91 0.91 0.0 0 1 628.06 749.06
  Q 630.32 751.56 631.40 754.32
  Q 636.07 766.32 641.88 779.65
  Q 646.70 790.71 654.98 799.53
  C 662.41 807.45 670.74 811.13 681.54 814.50
  Q 698.28 819.71 708.64 833.85
  Q 710.81 836.80 711.49 838.50
  A 2.06 2.03 37.3 0 1 711.63 839.47
  Q 711.36 842.34 707.85 843.07
  A 2.65 2.65 0.0 0 1 705.04 841.87
  Q 702.14 837.21 701.18 835.83
  C 696.68 829.39 689.40 824.94 682.21 822.31
  Q 677.06 820.43 666.02 816.04
  Q 663.59 815.07 661.58 813.74
  Q 653.24 808.21 647.03 802.21
  A 0.37 0.37 0.0 0 0 646.41 802.49
  C 646.58 806.99 646.10 812.54 646.60 817.52
  Q 647.28 824.16 650.93 832.86
  Q 654.92 842.35 661.84 848.17
  Q 662.25 848.51 664.00 850.57
  A 1.72 1.71 -68.4 0 1 664.42 851.55
  C 664.70 854.53 661.59 858.00 658.88 855.51
  C 653.18 850.27 645.33 840.96 643.07 832.96
  Q 639.65 820.86 639.31 815.72
  Q 638.94 810.00 639.39 801.51
  C 639.73 795.34 636.84 787.28 634.11 781.96
  C 631.35 776.57 629.97 772.95 628.00 768.29
  Q 627.69 767.55 627.15 767.19
  A 0.59 0.59 0.0 0 0 626.29 767.44
  Q 620.30 780.75 618.91 784.15
  Q 616.87 789.12 615.93 793.09
  C 614.42 799.49 615.41 807.03 615.11 813.30
  Q 614.85 818.59 612.37 828.88
  C 609.88 839.17 603.65 847.67 596.19 855.00
  A 3.26 3.26 0.0 0 1 591.34 854.86
  L 591.17 854.65
  A 3.60 3.59 48.4 0 1 591.46 849.71
  Q 598.70 842.95 601.16 838.14
  C 605.54 829.52 608.80 819.18 608.30 809.82
  Q 608.02 804.58 608.06 802.57
  A 0.51 0.51 0.0 0 0 607.21 802.18
  Q 602.97 806.07 595.74 811.53
  C 589.99 815.87 582.28 818.64 576.32 820.64
  Q 569.44 822.95 566.96 824.43
  C 561.51 827.69 555.60 831.63 552.84 836.62
  Q 550.85 840.21 549.84 841.68
  A 3.33 3.32 -55.1 0 1 545.19 842.51
  L 544.93 842.33
  A 3.74 3.74 0.0 0 1 543.89 837.34
  Q 547.37 831.56 552.96 825.83
  C 557.17 821.51 563.33 818.18 568.27 816.47
  C 578.60 812.88 587.96 809.40 595.58 803.21
  Q 598.47 800.87 601.50 796.94
  C 604.01 793.69 606.66 791.11 608.43 787.72
  Q 615.46 774.24 617.69 766.96
  Q 619.83 760.02 621.00 758.02
  Q 624.63 751.82 626.66 749.12
  Z"
/>
</svg>
